<svg width="83" height="29" viewBox="0 0 83 29" fill="none" xmlns="http://www.w3.org/2000/svg">
<path d="M11.1321 23.805C10.7498 23.805 10.3624 23.66 10.0707 23.37L8.03339 21.345H5.15103C4.32103 21.345 3.652 20.675 3.652 19.855V16.99L1.60969 14.96C1.02618 14.38 1.02618 13.43 1.60969 12.85L3.64697 10.825V7.96C3.64697 7.135 4.32103 6.47 5.146 6.47H8.02836L10.0656 4.445C10.6491 3.865 11.6049 3.865 12.1884 4.445L14.2257 6.47H17.1081C17.9381 6.47 18.6071 7.14 18.6071 7.96V10.825L20.6444 12.85C21.2279 13.43 21.2279 14.38 20.6444 14.96L18.6071 16.985V19.85C18.6071 20.675 17.933 21.34 17.1081 21.34H14.2358L12.1985 23.365C11.9017 23.66 11.5194 23.805 11.1321 23.805Z" fill="#F8AE00"/>
<path d="M21.2279 12.915L18.9743 10.675V7.505C18.9743 6.735 18.3455 6.11 17.5708 6.11H14.3816L12.1281 3.87C11.5797 3.325 10.6894 3.325 10.1411 3.87L7.88751 6.11H4.69829C3.92363 6.11 3.29484 6.735 3.29484 7.505V10.675L1.04126 12.915C0.49296 13.46 0.49296 14.345 1.04126 14.89L3.29484 17.13V20.3C3.29484 21.07 3.92363 21.695 4.69829 21.695H7.88751L10.1411 23.935C10.6894 24.48 11.5797 24.48 12.1281 23.935L14.3816 21.695H17.5708C18.3455 21.695 18.9743 21.07 18.9743 20.3V17.13L21.2279 14.89C21.7762 14.345 21.7762 13.46 21.2279 12.915ZM20.2922 14.595L18.1041 16.77V19.85C18.1041 20.39 17.6614 20.83 17.1181 20.83H14.0194L11.8313 23.005C11.4439 23.39 10.8202 23.39 10.4379 23.005L8.24969 20.83H5.15102C4.60775 20.83 4.16508 20.39 4.16508 19.85V16.77L1.9769 14.595C1.58957 14.21 1.58957 13.59 1.9769 13.21L4.16508 11.035V7.955C4.16508 7.415 4.60775 6.975 5.15102 6.975H8.24969L10.4379 4.8C10.8252 4.415 11.449 4.415 11.8313 4.8L14.0194 6.975H17.1181C17.6614 6.975 18.1041 7.415 18.1041 7.955V11.035L20.2922 13.21C20.6796 13.595 20.6796 14.215 20.2922 14.595Z" stroke="#008669" stroke-miterlimit="10"/>
<path d="M10.4127 5.965L3.14897 13.185C2.75157 13.58 2.75157 14.225 3.14897 14.625L4.93472 16.4C5.51321 15.7 6.40357 14.885 7.69636 14.28C10.463 12.99 12.1381 14.16 13.8535 12.15C14.9249 10.895 14.6784 9.54 14.3867 8.755C14.271 8.455 14.0899 8.185 13.8635 7.955L11.8615 5.965C11.459 5.57 10.8101 5.57 10.4127 5.965Z" fill="#008669"/>
<path d="M11.8564 21.84L19.1202 14.62C19.5176 14.225 19.5176 13.58 19.1202 13.18L17.3344 11.405C16.7559 12.105 15.8656 12.92 14.5728 13.525C11.8061 14.815 10.131 13.645 8.41568 15.655C7.34423 16.91 7.59071 18.265 7.88247 19.05C7.99817 19.35 8.17926 19.62 8.40562 19.85L10.4077 21.84C10.8101 22.235 11.459 22.235 11.8564 21.84Z" fill="#008669"/>
<path d="M21.2279 12.915L18.9743 10.675V7.505C18.9743 6.735 18.3455 6.11 17.5708 6.11H14.3816L12.1281 3.87C11.5797 3.325 10.6894 3.325 10.1411 3.87L7.88751 6.11H4.69829C3.92363 6.11 3.29484 6.735 3.29484 7.505V10.675L1.04126 12.915C0.49296 13.46 0.49296 14.345 1.04126 14.89L3.29484 17.13V20.3C3.29484 21.07 3.92363 21.695 4.69829 21.695H7.88751L10.1411 23.935C10.6894 24.48 11.5797 24.48 12.1281 23.935L14.3816 21.695H17.5708C18.3455 21.695 18.9743 21.07 18.9743 20.3V17.13L21.2279 14.89C21.7762 14.345 21.7762 13.46 21.2279 12.915ZM20.2922 14.595L18.1041 16.77V19.85C18.1041 20.39 17.6614 20.83 17.1181 20.83H14.0194L11.8313 23.005C11.4439 23.39 10.8202 23.39 10.4379 23.005L8.24969 20.83H5.15102C4.60775 20.83 4.16508 20.39 4.16508 19.85V16.77L1.9769 14.595C1.58957 14.21 1.58957 13.59 1.9769 13.21L4.16508 11.035V7.955C4.16508 7.415 4.60775 6.975 5.15102 6.975H8.24969L10.4379 4.8C10.8252 4.415 11.449 4.415 11.8313 4.8L14.0194 6.975H17.1181C17.6614 6.975 18.1041 7.415 18.1041 7.955V11.035L20.2922 13.21C20.6796 13.595 20.6796 14.215 20.2922 14.595Z" fill="#008669"/>
<path d="M72.0943 21.735H74.6598V16.085L79.2625 21.735H82.3712L77.1497 15.29L81.9537 10.38H78.9506L74.6648 14.765V6.075H72.0993V21.735H72.0943ZM59.0105 10.38L63.3667 21.275L63.2561 21.575C62.7731 22.85 61.9934 23.12 61.3546 23.12C61.1182 23.12 60.8365 23.1 60.6101 23.03V25.335C60.8365 25.425 61.3194 25.535 61.918 25.535C64.0207 25.535 65.0569 24.15 65.9473 21.865L70.4142 10.375H67.6928L64.7802 18.36L61.7621 10.375H59.0105V10.38ZM54.3776 18.49C54.3776 20.66 55.3585 21.935 57.4611 21.935C58.0598 21.935 58.5175 21.825 58.7439 21.735V19.42C58.5527 19.475 58.3616 19.52 58.1151 19.52C57.4159 19.52 56.9581 19.06 56.9581 18.155V6.075H54.3826V18.49H54.3776ZM43.1298 16.055C43.1298 13.805 44.6842 12.585 46.2788 12.585C47.8784 12.585 49.4278 13.805 49.4278 16.055C49.4278 18.305 47.8734 19.525 46.2788 19.525C44.6791 19.52 43.1298 18.3 43.1298 16.055ZM40.4587 16.055C40.4587 19.815 43.0946 21.94 45.816 21.94C47.6722 21.94 48.8644 20.98 49.3976 20.185V21.74H51.9731V10.38H49.3976V11.925C48.8694 11.14 47.6772 10.18 45.816 10.18C43.0946 10.18 40.4587 12.285 40.4587 16.055ZM25.8205 21.735H28.4765V14.9H35.9365V21.735H38.5925V6.075H35.9365V12.485H28.4765V6.075H25.8205V21.735Z" fill="#008669"/>
</svg>
