<svg width="92" height="15" viewBox="0 0 92 15" fill="none" xmlns="http://www.w3.org/2000/svg">
<g clip-path="url(#clip0_104_408)">
<path d="M6.92465 3.67966L3.85557 7.87881H2.76985V0H0V14.6753H2.76985V9.95671H3.85217L6.92465 14.6753H9.8436V14.3507L5.98267 8.82704L9.80101 3.98268V3.67966H6.92465Z" fill="black"/>
<path fill-rule="evenodd" clip-rule="evenodd" d="M16.3504 15C15.2567 15 14.2908 14.7475 13.4527 14.2424C12.6147 13.7373 11.9542 13.052 11.4713 12.1862C10.9883 11.3203 10.7468 10.3319 10.7468 9.22079C10.7468 8.12412 10.9812 7.14289 11.4499 6.27704C11.9329 5.39683 12.5934 4.7114 13.4314 4.22078C14.2837 3.71573 15.2567 3.46321 16.3504 3.46321C17.43 3.46321 18.3888 3.71573 19.2268 4.22078C20.0791 4.7114 20.7467 5.39683 21.2296 6.27704C21.7126 7.14289 21.954 8.12412 21.954 9.22079C21.954 10.3319 21.7126 11.3203 21.2296 12.1862C20.7467 13.052 20.0791 13.7373 19.2268 14.2424C18.3888 14.7475 17.43 15 16.3504 15ZM16.3504 12.4892C16.9328 12.4892 17.4442 12.3521 17.8845 12.0779C18.3391 11.7893 18.6871 11.3997 18.9285 10.9091C19.17 10.4185 19.2908 9.85569 19.2908 9.22079C19.2908 8.58589 19.17 8.0231 18.9285 7.53248C18.6871 7.04187 18.3391 6.65948 17.8845 6.38527C17.4442 6.11112 16.9328 5.97404 16.3504 5.97404C15.7539 5.97404 15.2354 6.11112 14.7951 6.38527C14.3547 6.65948 14.0138 7.04187 13.7723 7.53248C13.5309 8.0231 13.4101 8.58589 13.4101 9.22079C13.4101 9.85569 13.5309 10.4185 13.7723 10.9091C14.0138 11.3997 14.3547 11.7893 14.7951 12.0779C15.2354 12.3521 15.7539 12.4892 16.3504 12.4892Z" fill="black"/>
<path d="M25.0343 14.1126C25.4036 14.4877 25.8582 14.6753 26.398 14.6753H29.2956V12.2943H27.2715V0H22.4776V2.05627H24.4804V12.7273C24.4804 13.2756 24.665 13.7373 25.0343 14.1126Z" fill="black"/>
<path fill-rule="evenodd" clip-rule="evenodd" d="M36.303 15C35.2235 15 34.2505 14.7475 33.384 14.2424C32.5318 13.7373 31.857 13.052 31.3599 12.1862C30.877 11.3203 30.6355 10.3319 30.6355 9.22079C30.6355 8.09521 30.8841 7.09956 31.3812 6.23377C31.8783 5.36796 32.5389 4.68976 33.3627 4.19914C34.1866 3.70851 35.0814 3.46321 36.0473 3.46321C36.8712 3.46321 37.6453 3.63636 38.3697 3.98269C39.0942 4.32901 39.7192 4.81241 40.2447 5.4329C40.7845 6.05337 41.1822 6.76766 41.4379 7.57575L33.8107 11.4771C34.1023 11.8588 34.443 12.1457 34.8328 12.3377C35.3016 12.5686 35.7703 12.684 36.2391 12.684C36.7504 12.684 37.2476 12.5613 37.7306 12.316C38.2135 12.0563 38.5899 11.6883 38.8598 11.2121H41.5444C41.1609 12.3809 40.5004 13.3045 39.5629 13.9827C38.6396 14.6609 37.553 15 36.303 15ZM33.1709 9.19916C33.1709 9.30421 33.1734 9.40679 33.1783 9.50689L38.3287 6.84271C38.2872 6.7875 38.244 6.73604 38.1993 6.68833C37.9152 6.37085 37.6027 6.15439 37.2618 6.03894C36.9209 5.90908 36.5729 5.84417 36.2178 5.84417C35.6638 5.84417 35.1596 5.97404 34.705 6.23377C34.2505 6.4935 33.8812 6.87589 33.5971 7.38098C33.313 7.8716 33.1709 8.47766 33.1709 9.19916Z" fill="black"/>
<path d="M49.2337 12.0346C49.1059 12.2078 48.8999 12.2943 48.6159 12.2943H43.758V14.6753H49.0846C50.0221 14.6753 50.7607 14.3723 51.3005 13.7662C51.8402 13.1602 52.1101 12.3449 52.1101 11.3203C52.1101 10.2814 51.8331 9.45167 51.2791 8.83119C50.7394 8.19623 50.0079 7.87881 49.0846 7.87881H46.5705C46.3005 7.87881 46.0946 7.80664 45.9525 7.66235C45.8247 7.50364 45.7608 7.27996 45.7608 6.99133C45.7608 6.67391 45.8318 6.44302 45.9738 6.29867C46.1159 6.13996 46.3147 6.06064 46.5705 6.06064H51.2791V3.67966H46.2295C45.2636 3.67966 44.4966 3.97547 43.9284 4.5671C43.3744 5.1443 43.0975 5.93071 43.0975 6.92642C43.0975 7.9365 43.3744 8.7446 43.9284 9.35065C44.4966 9.94229 45.2636 10.2381 46.2295 10.2381H48.6159C48.8999 10.2381 49.1059 10.3247 49.2337 10.4978C49.3758 10.6566 49.4468 10.9091 49.4468 11.2554C49.4468 11.6018 49.3758 11.8615 49.2337 12.0346Z" fill="black"/>
<path fill-rule="evenodd" clip-rule="evenodd" d="M58.8681 15C57.931 15 57.0712 14.7475 56.2902 14.2424C55.5089 13.7229 54.884 13.0303 54.4152 12.1645C53.9465 11.2987 53.7121 10.3175 53.7121 9.22079C53.7121 8.12412 53.9465 7.14289 54.4152 6.27704C54.884 5.39683 55.5089 4.7114 56.2902 4.22078C57.0854 3.71573 57.952 3.46321 58.8897 3.46321C59.6569 3.46321 60.3174 3.62915 60.8711 3.96104C61.4395 4.2785 61.8723 4.70419 62.171 5.23809H62.4265V3.67966H65.111V14.6753H62.4265V13.0952H62.171C61.8865 13.6436 61.4605 14.0981 60.8926 14.4588C60.3384 14.8197 59.6637 15 58.8681 15ZM62.192 7.96535C62.347 8.35194 62.4254 8.76692 62.4265 9.21029C62.4254 9.68221 62.347 10.1186 62.192 10.5195C62.0358 10.9091 61.8229 11.2482 61.5531 11.5368C61.2828 11.8254 60.9636 12.049 60.5939 12.2078C60.239 12.3665 59.8415 12.4459 59.4008 12.4459C58.8329 12.4459 58.3212 12.3088 57.8669 12.0346C57.4125 11.746 57.0502 11.3637 56.7802 10.8875C56.5246 10.3968 56.3967 9.84127 56.3967 9.22079C56.3967 8.60031 56.5246 8.05194 56.7802 7.57575C57.0502 7.09956 57.4125 6.72439 57.8669 6.45023C58.3212 6.1616 58.8329 6.01731 59.4008 6.01731C59.8415 6.01731 60.239 6.09669 60.5939 6.25541C60.9636 6.41412 61.2828 6.63779 61.5531 6.92642C61.8229 7.215 62.0358 7.56133 62.192 7.96535Z" fill="black"/>
<path d="M79.0007 3.67966L75.9318 7.87881H74.846V0H72.0758V14.6753H74.846V9.95671H75.9284L79.0007 14.6753H81.9198V14.3507L78.0586 8.82704L81.8772 3.98268V3.67966H79.0007Z" fill="black"/>
<path d="M88.8419 6.06064L83.6712 12.2943V14.6753H91.8529V12.2943H86.6475L91.8529 6.06064V3.67966H83.6712V6.06064H88.8419Z" fill="black"/>
<path d="M67.3128 12.2943V14.6753H69.9552V12.2943H67.3128Z" fill="black"/>
</g>
<defs>
<clipPath id="clip0_104_408">
<rect width="92" height="15" fill="white"/>
</clipPath>
</defs>
</svg>
