<svg width="88" height="26" viewBox="0 0 88 26" fill="none" xmlns="http://www.w3.org/2000/svg">
<g clip-path="url(#clip0_105_464)">
<path d="M11.4497 26C11.4497 26 0 22.6904 0 6.28265V0H22.8994V6.28265C22.8994 22.0733 11.4497 26 11.4497 26Z" fill="#4FB84E"/>
<path d="M18.0741 6.33875H8.85155V11.5556H18.0741V13.1262C18.0741 15.7627 17.3032 17.8943 13.2487 17.8943H8.85155V24.7659C10.3649 25.6915 11.4499 26 11.4499 26C11.4499 26 22.8996 22.0733 22.8996 6.28265V1.54261C22.8996 4.17908 21.7289 6.28265 18.0741 6.33875Z" fill="#055532"/>
<path d="M29.2664 15.4541H31.6363C32.9212 15.4541 33.8349 16.0151 33.8349 17.1089C33.8349 17.6418 33.5779 18.1747 33.0925 18.4552V18.4832C33.8349 18.7076 34.0919 19.3527 34.0919 19.9137C34.0919 21.288 32.9212 21.7928 31.6363 21.7928H29.2664V15.4541ZM31.6649 17.8943C32.0646 17.8943 32.2359 17.6138 32.2359 17.3053C32.2359 17.0247 32.0646 16.7723 31.6363 16.7723H30.8654V17.8943H31.6649ZM31.7791 20.4466C32.2359 20.4466 32.4643 20.1381 32.4643 19.7734C32.4643 19.4088 32.2359 19.1283 31.7791 19.1283H30.8368V20.4466H31.7791Z" fill="black"/>
<path d="M36.5189 15.4541H38.1749L40.3735 21.7648H38.746L38.3463 20.4466H36.3475L35.9478 21.7648H34.3203L36.5189 15.4541ZM37.9751 19.2125L37.6039 17.9784C37.4896 17.5857 37.3469 16.8845 37.3469 16.8845H37.3184C37.3184 16.8845 37.1756 17.5857 37.0614 17.9784L36.6902 19.2125H37.9751Z" fill="black"/>
<path d="M41.0016 15.4541H42.6006L44.3709 18.3991C44.6279 18.8198 44.9134 19.4649 44.9134 19.4649H44.9419C44.9419 19.4649 44.8563 18.7917 44.8563 18.3991V15.4541H46.4267V21.7648H44.8563L43.0575 18.8198C42.8005 18.3991 42.515 17.754 42.515 17.754H42.4864C42.4864 17.754 42.5721 18.4271 42.5721 18.8198V21.7648H41.0016V15.4541Z" fill="black"/>
<path d="M49.3677 15.4541V17.8943H50.0244L51.3663 15.4541H53.051L51.3093 18.4832V18.5113L53.1366 21.7928H51.3663L49.9958 19.2405H49.3391V21.7928H47.7687V15.4541H49.3677Z" fill="black"/>
<path d="M29.2664 12.5934V3.73042H34.8057V4.37551C34.8057 5.04865 34.2632 5.58154 33.5779 5.58154H31.465V7.43268H34.2061V8.04971C34.2061 8.72289 33.635 9.28383 32.9498 9.28383H31.465V12.5654H29.2664V12.5934Z" fill="black"/>
<path d="M38.2604 7.7412H39.2312C39.6024 7.7412 39.8879 7.65706 40.0878 7.46073C40.2877 7.2644 40.4019 7.01198 40.4019 6.64737C40.4019 6.17052 40.2305 5.83396 39.8594 5.69372C39.6595 5.60958 39.374 5.58154 39.0314 5.58154H38.289V7.7412H38.2604ZM36.0333 3.73042H39.1741C39.9736 3.73042 40.5446 3.81456 40.9158 3.9548C41.4298 4.15113 41.8581 4.45965 42.1436 4.90841C42.4291 5.35717 42.5719 5.89005 42.5719 6.53518C42.5719 7.04003 42.4577 7.51682 42.2293 7.96557C42.0008 8.41432 41.6582 8.75094 41.2299 8.97531V9.00336C41.3155 9.11555 41.4298 9.28383 41.5725 9.53625L43.3143 12.6495H40.8872L39.2883 9.64844H38.2604V12.6495H36.0333V3.73042Z" fill="black"/>
<path d="M44.3422 12.5934V3.73042H50.0242V5.58154H46.5693V7.20831H49.3104V9.05945H46.5693V10.7423H50.1955V12.5934H44.3422Z" fill="black"/>
<path d="M51.5947 12.5934V3.73042H57.2483V5.58154H53.8219V7.20831H56.5629V9.05945H53.8219V10.7423H57.4481V12.5934H51.5947Z" fill="black"/>
<path d="M61.0459 10.7423H61.9594C62.7304 10.7423 63.3299 10.5179 63.758 10.0691C64.1866 9.62039 64.4149 8.97531 64.4149 8.13385C64.4149 7.3205 64.1866 6.67542 63.758 6.22661C63.3299 5.77787 62.7304 5.58154 61.9594 5.58154H61.0459V10.7423ZM58.847 12.5934V3.73042H62.0451C63.4724 3.73042 64.6147 4.12308 65.443 4.90841C66.2708 5.69373 66.6989 6.75956 66.6989 8.1619C66.6989 9.5643 66.2708 10.6301 65.443 11.4154C64.6147 12.2008 63.4724 12.5934 62.0451 12.5934H58.847Z" fill="black"/>
<path d="M69.9543 8.10597C69.9543 8.86329 70.1826 9.50837 70.6396 10.0132C71.0961 10.5181 71.6962 10.7705 72.3814 10.7705C73.0951 10.7705 73.6662 10.5181 74.1227 10.0132C74.5797 9.50837 74.808 8.86329 74.808 8.10597C74.808 7.37675 74.5797 6.75972 74.1227 6.28287C73.6662 5.80608 73.0951 5.55365 72.3814 5.55365C71.6672 5.55365 71.0961 5.80608 70.6396 6.28287C70.1826 6.75972 69.9543 7.37675 69.9543 8.10597ZM67.6697 8.10597C67.6697 6.81582 68.0984 5.74998 68.9835 4.88053C69.8686 4.01105 71.0109 3.59034 72.3814 3.59034C73.752 3.59034 74.8937 4.01105 75.7788 4.88053C76.6639 5.74998 77.0925 6.81582 77.0925 8.10597C77.0925 9.42423 76.6639 10.5461 75.7788 11.4156C74.8937 12.3131 73.752 12.7338 72.3814 12.7338C71.0109 12.7338 69.8686 12.2851 68.9835 11.4156C68.0984 10.5181 67.6697 9.42423 67.6697 8.10597Z" fill="black"/>
<path d="M78.1486 12.5934L78.8912 3.73042H81.2899L82.6031 7.48878L83.0601 8.94727H83.0885C83.2599 8.35823 83.4025 7.85339 83.5455 7.48878L84.8587 3.73042H87.2574L87.9994 12.5934H85.8012L85.5156 8.61065C85.4866 8.41432 85.4866 8.18995 85.4866 7.93753C85.4866 7.6851 85.4866 7.48878 85.4866 7.34854V7.12417H85.4582C85.2584 7.7412 85.0869 8.24604 84.9444 8.61065L84.002 11.1911H82.1177L81.1752 8.61065L80.6614 7.12417H80.633C80.6614 7.65706 80.6614 8.1619 80.633 8.61065L80.3474 12.5934H78.1486Z" fill="black"/>
</g>
<defs>
<clipPath id="clip0_105_464">
<rect width="88" height="26" fill="white"/>
</clipPath>
</defs>
</svg>
