<svg width="123" height="29" viewBox="0 0 123 29" fill="none" xmlns="http://www.w3.org/2000/svg">
<g clip-path="url(#clip0_103_180)">
<path fill-rule="evenodd" clip-rule="evenodd" d="M14.6095 15.5117C17.1077 15.9003 17.4454 17.3894 17.6474 18.7753L17.681 19.0116L17.704 19.1724L17.8256 19.988C18.0636 21.5453 18.5601 24.7779 18.5601 26.4647C18.5601 26.8862 18.5233 27.2098 18.456 27.3876C18.3439 27.6616 18.0173 27.9245 17.5663 28.1437C16.4751 28.4143 15.3345 28.5606 14.1597 28.5606C14.0353 28.5606 13.9129 28.5545 13.79 28.5508C13.3152 28.415 12.9584 28.1882 12.7694 27.8782C12.1989 26.9427 12.1645 24.8583 12.1531 22.4224L12.1518 22.1399L12.1472 21.4098C12.1286 18.8312 12.1126 16.6079 13.0426 15.81C13.4028 15.5031 13.9146 15.4015 14.6095 15.5117ZM9.1628 21.1259C9.70418 21.0952 10.0523 23.7777 10.1223 25.8118C10.1713 27.228 10.0237 27.8106 9.78801 28.0197C9.52116 27.93 9.25893 27.8329 9.00055 27.7274C8.82817 27.4119 8.69642 26.9155 8.61272 26.2654C8.35718 24.2223 8.57916 21.1619 9.1628 21.1259ZM22.7351 25.1346C22.7014 25.3209 22.6537 25.4648 22.595 25.5863C22.1321 25.9604 21.6456 26.304 21.1365 26.613C20.9744 26.6405 20.8304 26.6214 20.76 26.5015C20.0852 25.3072 19.832 21.5604 20.4849 21.2342C21.3362 20.82 22.8613 24.4868 22.7351 25.1346ZM13.9581 0.439392C21.5595 0.439392 27.7409 6.50357 27.9114 14.0494L27.9149 14.3103V14.4308C27.9009 17.8394 26.6558 20.9579 24.6044 23.3715C24.53 23.3339 24.3942 23.2108 24.1483 22.8402C23.8938 22.4677 21.6994 19.0656 21.6994 15.1662C21.6994 14.401 22.7943 13.2055 23.7633 12.1563C24.4876 11.3667 25.1737 10.6219 25.4263 10.0365C25.7481 9.28123 25.5229 8.75382 25.1668 8.57505C24.8445 8.41618 24.3606 8.53206 24.021 9.13966C23.4638 10.123 23.2852 10.3068 22.4724 10.9647C21.6725 11.6223 20.4009 12.2843 20.4009 11.4274C20.4009 10.9647 21.1092 9.91686 21.4591 9.18236C21.8164 8.43967 21.4312 7.90202 20.6934 7.90202C19.2445 7.90202 18.2828 9.76131 18.2828 10.4055C18.2828 11.0491 18.5927 11.1407 18.5927 11.8903C18.5927 12.6454 17.003 13.6249 15.5056 13.6249C14.0639 13.6249 13.2278 13.3309 12.8814 12.5028L12.8372 12.3865L12.737 12.0881C12.3818 11.0422 12.127 10.2838 11.6834 9.49108C11.4479 9.0719 11.0845 8.7813 10.7702 8.52561C10.3594 8.20418 10.1463 7.90822 10.1018 7.68749C10.0608 7.46851 10.0387 7.05582 10.741 6.1045C11.4417 5.15861 11.5399 4.44403 11.1892 4.07532C11.0621 3.94415 10.8455 3.86011 10.5672 3.86011C10.075 3.86011 9.39109 4.12282 8.68629 4.84445C7.59067 5.9754 8.21266 7.04919 8.21266 7.52056C8.21266 7.99163 8.01194 8.25808 7.35445 8.89896C6.69214 9.54267 6.46356 10.0945 6.38782 12.3126C6.35879 13.4555 6.15899 14.1133 5.97964 14.6967C5.82466 15.208 5.68213 15.6886 5.67443 16.3832C5.66215 17.1528 5.78932 17.6488 5.93772 18.2211C6.08343 18.75 6.23819 19.3561 6.33734 20.3699C6.49504 21.9394 6.44021 23.2651 6.15349 24.6201L6.07697 24.9596L6.05908 25.0571C6.00037 25.2953 5.93057 25.5845 5.83623 25.6929C2.30364 23.1652 0 19.0372 0 14.3709C0 6.67741 6.24901 0.439392 13.9581 0.439392Z" fill="#F14635"/>
<path d="M81.2224 10.0804C82.6034 10.0804 83.6771 10.573 84.4436 11.5583C85.21 12.5436 85.5931 13.898 85.5931 15.6214V15.7818C85.5931 17.4651 85.2013 18.8095 84.4177 19.8148C83.6338 20.8202 82.5757 21.3228 81.2431 21.3228C80.2143 21.3228 79.3684 20.9587 78.7055 20.2307V25.7011H75.2153V10.2809H78.4778L78.5814 11.2828C79.2511 10.4812 80.1314 10.0804 81.2224 10.0804ZM56.8839 10.0804C58.3132 10.0804 59.4421 10.4178 60.2707 11.0924C61.0992 11.7671 61.5239 12.6923 61.5446 13.868V18.6676C61.5585 19.6629 61.7172 20.4243 62.0211 20.9521V21.1225H58.5306C58.4064 20.902 58.2959 20.578 58.1992 20.1505C57.5571 20.932 56.6595 21.3228 55.5064 21.3228C54.4499 21.3228 53.5524 21.0138 52.8135 20.396C52.0747 19.7781 51.7053 19.0015 51.7053 18.0663C51.7053 16.8907 52.1541 16.0022 53.0517 15.401C53.9494 14.7998 55.2544 14.4992 56.9667 14.4992H58.0439V13.9281C58.0439 12.9328 57.5985 12.4351 56.7078 12.4351C55.8793 12.4351 55.465 12.8292 55.465 13.6174H51.9746C51.9746 12.5687 52.4354 11.7171 53.3573 11.0624C54.279 10.4077 55.4546 10.0804 56.8839 10.0804ZM68.2454 10.0804C69.7229 10.0804 70.9105 10.4044 71.8081 11.0523C72.7058 11.7004 73.1546 12.552 73.1546 13.6074H69.6539C69.6539 12.7391 69.1809 12.3049 68.235 12.3049C67.869 12.3049 67.5617 12.4034 67.3132 12.6004C67.0646 12.7975 66.9403 13.043 66.9403 13.3369C66.9403 13.6376 67.0922 13.8813 67.396 14.0683C67.6998 14.2554 68.1848 14.409 68.8511 14.5293C69.5174 14.6496 70.1027 14.7932 70.6068 14.9601C72.2916 15.5212 73.1338 16.5266 73.1338 17.9761C73.1338 18.9648 72.6799 19.7697 71.7719 20.391C70.8639 21.0122 69.6884 21.3228 68.2454 21.3228C67.2855 21.3228 66.4293 21.1559 65.6768 20.8218C64.9241 20.4878 64.3372 20.0336 63.916 19.4591C63.4948 18.8846 63.2842 18.2801 63.2842 17.6455H66.5468C66.5605 18.1464 66.7331 18.5122 67.0646 18.7427C67.396 18.9731 67.8205 19.0883 68.3385 19.0883C68.8148 19.0883 69.1723 18.9948 69.4105 18.8078C69.6487 18.6207 69.7677 18.3769 69.7677 18.0763C69.7677 17.7891 69.6125 17.5586 69.3017 17.385C68.991 17.2113 68.4006 17.0309 67.5307 16.8439C66.6607 16.6569 65.9426 16.4114 65.3763 16.1074C64.8102 15.8035 64.3786 15.4344 64.0817 15.0002C63.7848 14.566 63.6364 14.0683 63.6364 13.5072C63.6364 12.5119 64.061 11.692 64.9102 11.0473C65.7596 10.4027 66.8713 10.0804 68.2454 10.0804ZM42.0218 5.71255V12.9662L46.9618 5.71255H51.4567L45.9368 12.9862L51.0325 21.1225H46.724L43.5132 15.6916L42.0218 17.2748V21.1225H38.3864V5.71255H42.0218ZM91.2372 10.2809V21.1225H87.7365V10.2809H91.2372ZM122.017 10.2809V12.1044L117.025 18.5172H122.131V21.1225H112.613V19.2387L117.585 12.886H111.728L114.06 10.2809H122.017ZM95.9173 17.6252C96.8725 17.6252 97.6454 18.3765 97.6454 19.3034C97.6454 20.2301 96.8725 20.9815 95.9173 20.9815C94.963 20.9815 94.1892 20.2301 94.1892 19.3034C94.1892 18.3765 94.963 17.6252 95.9173 17.6252ZM104.023 5.71212V13.8092L104.376 13.3627L107.013 10.227H111.209L107.273 14.6427L111.469 20.9636H107.46L105.01 16.9646L104.023 17.9073V20.9636H100.523V5.71212H104.023ZM58.0439 16.3028H57.0289C55.8137 16.3028 55.2061 16.8305 55.2061 17.886C55.2061 18.1933 55.313 18.4421 55.5271 18.6325C55.7412 18.8228 56.0139 18.918 56.3453 18.918C56.7803 18.918 57.1411 18.8279 57.4277 18.6475C57.7142 18.4671 57.9196 18.2634 58.0439 18.0362V16.3028ZM80.3628 12.6857C79.5342 12.6857 78.9817 12.9728 78.7055 13.5473V17.8158C79.0094 18.417 79.5687 18.7177 80.3835 18.7177C81.4952 18.7177 82.0682 17.7891 82.1027 15.9321V15.5713C82.1027 13.6476 81.5228 12.6857 80.3628 12.6857ZM89.5344 5.71212C90.4887 5.71212 91.2625 6.4992 91.2625 7.47013C91.2625 8.44107 90.4887 9.22815 89.5344 9.22815C88.5801 9.22815 87.8063 8.44107 87.8063 7.47013C87.8063 6.4992 88.5801 5.71212 89.5344 5.71212Z" fill="black"/>
</g>
<defs>
<clipPath id="clip0_103_180">
<rect width="123" height="29" fill="white"/>
</clipPath>
</defs>
</svg>
