<svg width="83" height="28" viewBox="0 0 83 28" fill="none" xmlns="http://www.w3.org/2000/svg">
<g clip-path="url(#clip0_104_430)">
<mask id="mask0_104_430" style="mask-type:luminance" maskUnits="userSpaceOnUse" x="0" y="0" width="83" height="28">
<path d="M83 0H0V28H83V0Z" fill="white"/>
</mask>
<g mask="url(#mask0_104_430)">
<path d="M3.30074 22.9948H24.9546C26.3915 21.2889 27.4302 19.2446 27.9281 17.0029H0.32724C0.825194 19.2587 1.86379 21.303 3.30074 22.9948Z" fill="#FFD400"/>
<path d="M24.9689 5.01907H3.28651C1.84955 6.72501 0.810967 8.76934 0.32724 11.011H27.9423C27.4444 8.76934 26.4057 6.72501 24.9689 5.01907Z" fill="#FFD400"/>
<path d="M24.9547 23.0091H3.30082C5.81904 25.9698 9.54659 27.8873 13.7294 28.0001H14.5261C18.7089 27.8873 22.4365 25.9698 24.9547 23.0091Z" fill="#10083F"/>
<path d="M3.28638 5.01913H24.9687C22.4078 1.98791 18.5807 0.0422961 14.284 0H13.971C9.68866 0.0422961 5.84729 1.98791 3.28638 5.01913Z" fill="#10083F"/>
<path d="M28.2553 14.0847V13.9296C28.2553 12.9286 28.1415 11.9558 27.9281 11.0253H0.327227C0.113818 11.9558 0 12.9286 0 13.9296V14.0847C0 15.0857 0.113818 16.0726 0.327227 17.0173H27.9281C28.1415 16.0585 28.2553 15.0857 28.2553 14.0847Z" fill="#10083F"/>
<path d="M61.7833 9.97255C61.7833 10.4428 62.151 10.8189 62.6374 10.8189C63.1119 10.8189 63.4914 10.4545 63.4914 9.97255C63.4914 9.50233 63.1119 9.12616 62.6374 9.12616C62.151 9.12616 61.7833 9.50233 61.7833 9.97255Z" fill="black"/>
<path d="M66.2434 12.7348L66.1841 12.7701L66.0774 12.4645C66.0417 12.3587 65.9469 12.3 65.8401 12.3H65.2944C65.1521 12.3 65.0334 12.4175 65.0334 12.5585V19.5174C65.0334 19.6584 65.1521 19.776 65.2944 19.776H66.2789C66.4213 19.776 66.54 19.6584 66.54 19.5174V13.8869L66.5636 13.875C66.967 13.6635 67.3821 13.5341 68.1769 13.5341C69.1377 13.5341 69.3275 13.8869 69.3275 14.4628V19.5174C69.3275 19.6584 69.4461 19.776 69.5884 19.776H70.5731C70.7154 19.776 70.834 19.6584 70.834 19.5174V14.5099C70.834 12.9699 69.9206 12.1706 68.1887 12.1706C67.5245 12.1588 66.872 12.3469 66.2434 12.7348Z" fill="black"/>
<path d="M63.3609 12.5469C63.3609 12.4058 63.2423 12.2882 63.0999 12.2882H62.1391C61.9968 12.2882 61.8782 12.4058 61.8782 12.5469V19.5057C61.8782 19.6467 61.9968 19.7643 62.1391 19.7643H63.0999C63.2423 19.7643 63.3609 19.6467 63.3609 19.5057V12.5469Z" fill="black"/>
<path d="M60.0989 9.06736C60.0989 8.92631 59.9802 8.80871 59.8379 8.80871H58.8889C58.7466 8.80871 58.6279 8.92631 58.6279 9.06736V19.5057C58.6279 19.6467 58.7466 19.7642 58.8889 19.7642H59.8379C59.9802 19.7642 60.0989 19.6467 60.0989 19.5057V9.06736Z" fill="black"/>
<path d="M45.3779 15.3681C45.4491 14.416 45.7101 13.5226 47.0624 13.5226C48.2368 13.5226 48.4621 14.1456 48.4859 15.3681V15.4151H45.3779V15.3681ZM43.8477 16.0263C43.8477 16.9785 43.8477 19.9055 47.0505 19.9055C48.0113 19.9055 48.6519 19.8467 49.4704 19.5881C49.5653 19.5528 49.6245 19.4588 49.6245 19.353V18.5654C49.6245 18.4713 49.5771 18.4008 49.506 18.3538C49.4348 18.3067 49.3518 18.3186 49.2687 18.3303C48.5451 18.4831 47.9758 18.5301 47.0505 18.5301C45.7101 18.5301 45.4491 17.6956 45.3661 16.7786L45.3543 16.7198H49.7076C49.85 16.7198 49.9686 16.6023 49.9686 16.4613V16.0146C49.9686 14.1456 49.7432 12.1355 47.0387 12.1355C43.8477 12.159 43.8477 15.0742 43.8477 16.0263Z" fill="black"/>
<path d="M52.6615 15.3681C52.7326 14.416 52.9936 13.5226 54.3458 13.5226C55.5084 13.5226 55.7456 14.1456 55.7693 15.3681V15.4151H52.6496L52.6615 15.3681ZM51.1431 16.0263C51.1431 16.9785 51.1431 19.9055 54.3458 19.9055C55.3067 19.9055 55.9354 19.8467 56.7657 19.5881C56.8607 19.5528 56.9199 19.4588 56.9199 19.353V18.5654C56.9199 18.4713 56.8725 18.4008 56.8013 18.3538C56.7301 18.3067 56.6471 18.3186 56.5641 18.3303C55.8405 18.4831 55.2711 18.5301 54.3458 18.5301C53.0055 18.5301 52.7445 17.6956 52.6615 16.7786V16.7198H57.0148C57.1572 16.7198 57.2758 16.6023 57.2758 16.4613V16.0146C57.2758 14.1456 57.0504 12.1355 54.3458 12.1355C51.1431 12.159 51.1431 15.0742 51.1431 16.0263Z" fill="black"/>
<path d="M73.6216 15.3681C73.6928 14.416 73.9538 13.5226 75.3061 13.5226C76.4685 13.5226 76.7058 14.1456 76.7295 15.3681V15.4151H73.6216V15.3681ZM72.1033 16.0263C72.1033 16.9785 72.1033 19.9055 75.3061 19.9055C76.2668 19.9055 76.8955 19.8467 77.7259 19.5881C77.8208 19.5528 77.8801 19.4588 77.8801 19.353V18.5654C77.8801 18.4713 77.8326 18.4008 77.7615 18.3538C77.6903 18.3067 77.6073 18.3186 77.5243 18.3303C76.8007 18.4831 76.2313 18.5301 75.3061 18.5301C73.9656 18.5301 73.7047 17.6956 73.6216 16.7786L73.6098 16.7198H77.9631C78.1055 16.7198 78.2241 16.6023 78.2241 16.4613V16.0146C78.2241 14.1456 77.9987 12.1355 75.2942 12.1355C72.1033 12.159 72.1033 15.0742 72.1033 16.0263Z" fill="black"/>
<path d="M39.1032 14.8155C40.6214 14.8155 41.1553 15.2739 41.1553 16.5552C41.1553 17.4251 40.9062 18.3067 39.0676 18.3067H36.8612V14.8155H39.1032ZM38.9845 10.2428C40.5859 10.2428 40.7994 10.9952 40.7994 11.8063C40.7994 12.8407 40.2418 13.3461 39.0912 13.3461H36.8494V10.2428H38.9845ZM35.592 8.77354C35.4377 8.77354 35.3192 8.89105 35.3192 9.04391V19.4821C35.3192 19.635 35.4377 19.7525 35.592 19.7525H39.0201C41.4755 19.7525 42.8278 18.6123 42.8278 16.5434C42.8278 15.415 42.2821 14.4511 41.357 13.9691C41.357 13.9691 41.3332 13.9574 41.3095 13.9457C41.3332 13.9338 41.345 13.9104 41.345 13.9104C42.0568 13.3932 42.4601 12.6291 42.4601 11.7827C42.4601 10.6543 41.9975 8.75 38.9133 8.75H35.592V8.77354Z" fill="black"/>
<path fill-rule="evenodd" clip-rule="evenodd" d="M79.6593 12.1355C79.6474 12.1355 79.6356 12.1473 79.6356 12.159V12.3941C79.6356 12.4058 79.6474 12.4176 79.6593 12.4176H80.0982V13.8988C80.0982 13.9105 80.1101 13.9222 80.1219 13.9222H80.371C80.3829 13.9222 80.3948 13.9105 80.3948 13.8988V12.4176H80.8336C80.8455 12.4176 80.8574 12.4058 80.8574 12.3941V12.159C80.8574 12.1473 80.8455 12.1355 80.8336 12.1355H79.6593Z" fill="black"/>
<path fill-rule="evenodd" clip-rule="evenodd" d="M82.4587 12.1355C82.4468 12.1355 82.435 12.1355 82.435 12.1473C82.435 12.1473 81.9842 13.1817 81.9486 13.2875C81.9011 13.1817 81.4623 12.1473 81.4623 12.1473C81.4623 12.1355 81.4505 12.1355 81.4385 12.1355H81.142C81.1301 12.1355 81.1183 12.1473 81.1183 12.159V13.8988C81.1183 13.9105 81.1301 13.9222 81.142 13.9222H81.3792C81.3911 13.9222 81.3911 13.9222 81.403 13.9105C81.403 13.9105 81.4148 13.8988 81.4148 13.8869C81.4148 13.8869 81.403 12.8761 81.403 12.6645C81.486 12.8525 81.8419 13.6636 81.8419 13.6636C81.8419 13.6754 81.8537 13.6754 81.8656 13.6754H82.0554C82.0672 13.6754 82.0791 13.6754 82.0791 13.6636C82.0791 13.6636 82.435 12.8525 82.518 12.6645C82.518 12.8761 82.5062 13.8869 82.5062 13.8869C82.5062 13.8988 82.5062 13.8988 82.518 13.9105C82.5299 13.9105 82.5299 13.9222 82.5417 13.9222H82.779C82.7908 13.9222 82.8027 13.9105 82.8027 13.8988V12.159C82.8027 12.1473 82.7908 12.1355 82.779 12.1355H82.4587Z" fill="black"/>
</g>
</g>
<defs>
<clipPath id="clip0_104_430">
<rect width="83" height="28" fill="white"/>
</clipPath>
</defs>
</svg>
