<svg width="602" height="331" viewBox="0 0 602 331" fill="none" xmlns="http://www.w3.org/2000/svg">
<g clip-path="url(#clip0_109_479)">
<path d="M0 10C0 4.47715 4.47715 0 10 0H592C597.523 0 602 4.47715 602 10V253H0V10Z" fill="white"/>
<path d="M0 10C0 4.47715 4.47715 0 10 0H592C597.523 0 602 4.47715 602 10V253H0V10Z" fill="#FAF3EC"/>
<path d="M257.065 177.038C250.761 177.038 245.65 181.773 245.65 187.615C245.65 193.456 250.761 198.191 257.065 198.191C263.369 198.191 268.479 193.456 268.479 187.615C268.479 181.773 263.369 177.038 257.065 177.038Z" stroke="white" stroke-opacity="0.5" stroke-width="3" stroke-miterlimit="10"/>
<path d="M665 -0.74868V196.427C665 213.803 649.78 227.905 631.028 227.905H233.964C219.016 227.905 207.058 216.825 207.058 202.975V140.775C207.058 126.925 195.1 115.844 180.152 115.844H-61.9997" stroke="white" stroke-opacity="0.5" stroke-width="3" stroke-miterlimit="10"/>
<path d="M433.719 -1.00001V160.921C433.719 176.282 420.13 188.873 403.552 188.873H266.848" stroke="white" stroke-opacity="0.5" stroke-width="3" stroke-miterlimit="10"/>
<path d="M392.953 141.279C386.649 141.279 381.538 146.014 381.538 151.855C381.538 157.696 386.649 162.432 392.953 162.432C399.257 162.432 404.367 157.696 404.367 151.855C404.367 146.014 399.257 141.279 392.953 141.279Z" stroke="white" stroke-opacity="0.5" stroke-width="3" stroke-miterlimit="10"/>
<path d="M392.953 -1V142.034" stroke="white" stroke-opacity="0.5" stroke-width="3" stroke-miterlimit="10"/>
<path d="M345.391 141.279C339.087 141.279 333.977 146.014 333.977 151.855C333.977 157.696 339.087 162.432 345.391 162.432C351.695 162.432 356.806 157.696 356.806 151.855C356.806 146.014 351.695 141.279 345.391 141.279Z" stroke="white" stroke-opacity="0.5" stroke-width="3" stroke-miterlimit="10"/>
<path d="M345.391 -1V142.034" stroke="white" stroke-opacity="0.5" stroke-width="3" stroke-miterlimit="10"/>
<path d="M-61.9998 253.34H6.48761C34.2087 253.34 56.7661 232.438 56.7661 206.753V-0.999776" stroke="white" stroke-opacity="0.5" stroke-width="3" stroke-miterlimit="10"/>
<path d="M58.6683 174.268H-62" stroke="white" stroke-opacity="0.5" stroke-width="3" stroke-miterlimit="10"/>
<path d="M592.164 130.703C586.91 130.703 582.652 134.649 582.652 139.517C582.652 144.384 586.91 148.331 592.164 148.331C597.417 148.331 601.676 144.384 601.676 139.517C601.676 134.649 597.417 130.703 592.164 130.703Z" stroke="white" stroke-opacity="0.5" stroke-width="3" stroke-miterlimit="10"/>
<path d="M553.3 130.704C548.047 130.704 543.788 134.65 543.788 139.517C543.788 144.385 548.047 148.331 553.3 148.331C558.553 148.331 562.812 144.385 562.812 139.517C562.812 134.65 558.553 130.704 553.3 130.704Z" stroke="white" stroke-opacity="0.5" stroke-width="3" stroke-miterlimit="10"/>
<path d="M514.164 130.704C508.911 130.704 504.652 134.65 504.652 139.517C504.652 144.385 508.911 148.331 514.164 148.331C519.418 148.331 523.676 144.385 523.676 139.517C523.676 134.65 519.418 130.704 514.164 130.704Z" stroke="white" stroke-opacity="0.5" stroke-width="3" stroke-miterlimit="10"/>
<path d="M592.164 91.1668C586.91 91.1668 582.652 95.1128 582.652 99.9805C582.652 104.848 586.91 108.794 592.164 108.794C597.417 108.794 601.676 104.848 601.676 99.9805C601.676 95.1128 597.417 91.1668 592.164 91.1668Z" stroke="white" stroke-opacity="0.5" stroke-width="3" stroke-miterlimit="10"/>
<path d="M553.3 91.1673C548.047 91.1673 543.788 95.1133 543.788 99.981C543.788 104.849 548.047 108.795 553.3 108.795C558.553 108.795 562.812 104.849 562.812 99.981C562.812 95.1133 558.553 91.1673 553.3 91.1673Z" stroke="white" stroke-opacity="0.5" stroke-width="3" stroke-miterlimit="10"/>
<path d="M514.164 91.1673C508.911 91.1673 504.652 95.1133 504.652 99.981C504.652 104.849 508.911 108.795 514.164 108.795C519.418 108.795 523.676 104.849 523.676 99.981C523.676 95.1133 519.418 91.1673 514.164 91.1673Z" stroke="white" stroke-opacity="0.5" stroke-width="3" stroke-miterlimit="10"/>
<path d="M592.164 51.8825C586.91 51.8825 582.652 55.8286 582.652 60.6963C582.652 65.564 586.91 69.51 592.164 69.51C597.417 69.51 601.676 65.564 601.676 60.6963C601.676 55.8286 597.417 51.8825 592.164 51.8825Z" stroke="white" stroke-opacity="0.5" stroke-width="3" stroke-miterlimit="10"/>
<path d="M553.3 51.8825C548.047 51.8825 543.788 55.8286 543.788 60.6963C543.788 65.564 548.047 69.51 553.3 69.51C558.553 69.51 562.812 65.564 562.812 60.6963C562.812 55.8286 558.553 51.8825 553.3 51.8825Z" stroke="white" stroke-opacity="0.5" stroke-width="3" stroke-miterlimit="10"/>
<path d="M514.164 51.8825C508.911 51.8825 504.652 55.8286 504.652 60.6963C504.652 65.564 508.911 69.51 514.164 69.51C519.418 69.51 523.676 65.564 523.676 60.6963C523.676 55.8286 519.418 51.8825 514.164 51.8825Z" stroke="white" stroke-opacity="0.5" stroke-width="3" stroke-miterlimit="10"/>
<path d="M210.591 42.817H228.528V15.8721H210.591V42.817Z" stroke="white" stroke-opacity="0.5" stroke-width="3" stroke-miterlimit="10"/>
<path d="M179.88 71.5258H197.817V16.1251H179.88V71.5258Z" stroke="white" stroke-opacity="0.5" stroke-width="3" stroke-miterlimit="10"/>
<path d="M149.441 56.9188H167.378V16.1238H149.441V56.9188Z" stroke="white" stroke-opacity="0.5" stroke-width="3" stroke-miterlimit="10"/>
<path d="M119.002 85.3756H136.94V15.873H119.002V85.3756Z" stroke="white" stroke-opacity="0.5" stroke-width="3" stroke-miterlimit="10"/>
<path d="M98.3479 181.318H131.776V150.344H98.3479V181.318Z" stroke="white" stroke-opacity="0.5" stroke-width="3" stroke-miterlimit="10"/>
</g>
<g clip-path="url(#clip1_109_479)">
<path d="M90.8178 142.652C85.9013 142.652 81.4172 140.757 78.1918 137.316C75.0127 133.926 73.2619 129.268 73.2619 124.204C73.2619 119.139 75.0127 114.481 78.1918 111.09C81.4172 107.649 85.9013 105.754 90.8178 105.754C95.9665 105.754 100.541 107.606 104.427 111.262L108.992 106.283C105.485 102.876 99.5923 99.05 90.8178 99.05C84.3635 99.05 78.3986 101.299 73.8636 105.407L67.7054 134.218C68.9082 137.133 70.6439 139.79 72.8693 142.05C77.507 146.762 83.8815 149.357 90.8178 149.357C99.5926 149.357 105.485 145.531 108.992 142.123L104.427 137.146C100.542 140.8 95.9669 142.652 90.8178 142.652" fill="#EE252C"/>
<path d="M81.9331 85.0458C81.9331 86.8968 80.4317 88.397 78.5798 88.397C76.7279 88.397 75.2269 86.8968 75.2269 85.0458C75.2269 83.1945 76.7279 81.6943 78.5798 81.6943C80.4317 81.6943 81.9331 83.1945 81.9331 85.0458Z" fill="#A6A9A7"/>
<path d="M68.0263 147.888C68.0263 149.739 66.5249 151.24 64.673 151.24C62.821 151.24 61.32 149.739 61.32 147.888C61.32 146.037 62.821 144.536 64.673 144.536C66.5249 144.536 68.0263 146.037 68.0263 147.888" fill="#A6A9A7"/>
<path d="M103.349 180.648C103.349 182.499 101.848 184 99.9965 184C98.1446 184 96.6432 182.499 96.6432 180.648C96.6432 178.797 98.1446 177.297 99.9965 177.297C101.848 177.297 103.349 178.797 103.349 180.648" fill="#A6A9A7"/>
<path d="M131.164 82.9671C131.164 84.8177 129.662 86.3186 127.81 86.3186C125.958 86.3186 124.457 84.8177 124.457 82.9671C124.457 81.1158 125.958 79.6155 127.81 79.6155C129.662 79.6155 131.164 81.1158 131.164 82.9671Z" fill="#A6A9A7"/>
<path d="M68.0263 68.3505C68.0263 70.2011 66.5249 71.7021 64.673 71.7021C62.821 71.7021 61.32 70.2011 61.32 68.3505C61.32 66.4992 62.821 64.999 64.673 64.999C66.5249 64.999 68.0263 66.4992 68.0263 68.3505Z" fill="#A6A9A7"/>
<path d="M30.7062 106.35C30.7062 108.201 29.2051 109.702 27.3531 109.702C25.5012 109.702 24 108.201 24 106.35C24 104.499 25.5012 102.998 27.3531 102.998C29.2051 102.998 30.7062 104.499 30.7062 106.35Z" fill="#A6A9A7"/>
<path d="M44.6471 165.937C44.6471 167.788 43.1459 169.288 41.2938 169.288C39.442 169.288 37.9408 167.788 37.9408 165.937C37.9408 164.086 39.442 162.585 41.2938 162.585C43.1459 162.585 44.6471 164.086 44.6471 165.937Z" fill="#A6A9A7"/>
<path d="M78.3625 85.2267L64.4556 68.5313L64.8906 68.1697L78.7975 84.8647L78.3625 85.2267" fill="#A6A9A7"/>
<path d="M27.5553 106.548L27.1513 106.152L64.4712 68.1524L64.8751 68.5486L27.5553 106.548Z" fill="#A6A9A7"/>
<path d="M64.4624 148.077L27.1426 106.539L27.5639 106.161L64.8836 147.699L64.4624 148.077" fill="#A6A9A7"/>
<path d="M41.4668 166.161L41.1207 165.713L64.5002 147.665L64.8461 148.112L41.4668 166.161" fill="#A6A9A7"/>
<path d="M41.019 162.653L27.0784 106.418L27.6281 106.282L41.5685 162.517L41.019 162.653" fill="#A6A9A7"/>
<path d="M64.9493 147.949L64.3966 147.827L78.3035 84.9847L78.8561 85.1066L64.9493 147.949" fill="#A6A9A7"/>
<path d="M99.8039 180.856L64.4804 148.096L64.8655 147.681L100.189 180.441L99.8039 180.856" fill="#A6A9A7"/>
<path d="M99.9276 180.923L41.225 166.211L41.3626 165.663L100.065 180.374L99.9276 180.923" fill="#A6A9A7"/>
<path d="M78.5918 85.328L78.5682 84.7629L127.798 82.6845L127.822 83.2496L78.5918 85.328" fill="#A6A9A7"/>
<path d="M127.746 83.2429L64.6093 68.6263L64.7369 68.0747L127.874 82.6916L127.746 83.2429" fill="#A6A9A7"/>
<path d="M27.4635 106.611L27.2431 106.09L77.5933 84.7855L77.8138 85.3065L27.4635 106.611Z" fill="#A6A9A7"/>
<path d="M142.069 142.652C131.722 142.652 124.213 134.893 124.213 124.204C124.213 113.514 131.722 105.754 142.069 105.754C152.358 105.754 159.825 113.514 159.825 124.204C159.825 134.893 152.358 142.652 142.069 142.652V142.652ZM142.069 99.05C127.607 99.05 116.702 109.864 116.702 124.204C116.702 138.543 127.607 149.357 142.069 149.357C149.056 149.357 155.48 146.762 160.158 142.049C164.786 137.384 167.336 131.047 167.336 124.204C167.336 117.36 164.787 111.022 160.158 106.358C155.48 101.646 149.056 99.05 142.069 99.05Z" fill="#EE252C"/>
<path d="M201.242 106.557C202.733 106.557 204.11 106.692 205.348 106.96V99.5459C204.462 99.4177 203.505 99.3509 202.546 99.3509C197.052 99.3509 192.58 101.422 189.255 105.505L187.999 107.048V99.8524H180.789V148.555H187.999V115.033L188.059 114.897C190.404 109.596 195.209 106.557 201.242 106.557" fill="#EE252C"/>
<path d="M219.092 119.498L219.313 118.62C221.297 110.682 227.589 105.554 235.342 105.554C243.85 105.447 250.116 110.598 251.286 118.69L251.403 119.498H219.092ZM252.708 106.074C248.523 101.479 242.692 99.05 235.844 99.05C222.125 99.05 211.379 110.099 211.379 124.204C211.379 131.05 213.907 137.387 218.497 142.05C223.135 146.762 229.509 149.357 236.446 149.357C243.886 149.357 250.836 146.657 255.628 141.928L251.056 136.943C248.537 139.284 243.658 142.652 236.446 142.652C227.133 142.652 219.751 135.806 218.893 126.373L218.823 125.601H259.589C259.328 117.477 256.955 110.737 252.708 106.074" fill="#EE252C"/>
<path d="M286.999 100.523C286.999 106.732 281.963 111.766 275.75 111.766C269.537 111.766 264.501 106.732 264.501 100.523C264.501 94.3133 269.537 89.2796 275.75 89.2796C281.963 89.2796 286.999 94.3133 286.999 100.523Z" fill="#EE252C"/>
<path d="M268.555 102.818C268.484 102.921 268.431 103.039 268.397 103.173H271.987C271.927 103.449 271.868 103.724 271.808 103.999H267.525V103.461C267.529 103.362 267.539 103.266 267.553 103.173C267.602 102.864 267.71 102.587 267.876 102.348C268.127 101.984 268.414 101.847 268.85 101.642C269.052 101.545 269.305 101.426 269.627 101.251C270.336 100.865 270.632 100.697 270.839 100.409C271.054 100.11 271.163 99.7281 271.164 99.2743V99.27C271.161 98.4973 270.532 97.869 269.757 97.869C269.158 97.869 268.644 98.2469 268.443 98.7766L267.67 98.4842C267.989 97.6426 268.805 97.0429 269.757 97.0429C270.29 97.0429 270.78 97.2301 271.164 97.5427C271.662 97.9474 271.984 98.563 271.99 99.2517C271.991 99.2573 271.991 99.263 271.991 99.2686V99.2743C271.99 99.9047 271.828 100.448 271.51 100.89C271.184 101.343 270.747 101.582 270.022 101.976C269.68 102.162 269.415 102.287 269.204 102.388C268.798 102.58 268.676 102.643 268.555 102.818Z" fill="white"/>
<path d="M274.834 98.2744C274.142 99.1464 273.45 100.018 272.759 100.889H274.834V98.2744ZM276.58 100.89C276.52 101.165 276.46 101.441 276.4 101.716H275.66V104.003H274.834V101.715H271.858V100.889C272.849 99.6394 273.841 98.3892 274.833 97.1386H275.659L275.657 97.1418H275.66V100.89H276.58Z" fill="white"/>
<path d="M283.975 97.1408C283.7 97.7747 283.424 98.4079 283.149 99.0415C282.43 100.695 281.711 102.349 280.992 104.003H280.165C281.04 101.991 281.915 99.9788 282.79 97.9668H280.361C280.301 97.6917 280.241 97.4159 280.181 97.1408H283.975" fill="white"/>
<path d="M278.997 97.1503C278.33 98.6841 276.658 102.469 275.991 104.002H276.817C277.484 102.469 279.156 98.6841 279.823 97.1503H278.997Z" fill="white"/>
</g>
<path d="M402.397 172.858C402.397 172.858 401.949 178.799 401.859 184.922C401.679 195.981 389.828 203.384 382.286 206.857" stroke="#575756" stroke-width="3" stroke-miterlimit="10"/>
<path d="M395.574 144.891L383.363 192.873L389.917 202.653L415.057 155.31L395.574 144.891Z" fill="#231C1C"/>
<path d="M365.408 201.739C365.408 201.739 378.874 220.932 389.828 202.653L383.543 192.143C383.543 192.143 379.144 206.949 371.961 191.868L365.408 201.739Z" fill="#231C1C"/>
<path d="M364.15 193.331C367.562 202.104 369.806 207.771 371.333 211.153C367.562 216.454 365.137 216.454 362.983 216.362C357.775 216.088 354.722 201.008 351.221 184.008C350.682 181.266 350.143 178.89 349.784 176.697C351.849 169.751 358.852 179.621 364.15 193.331Z" fill="#C1C1C1"/>
<path d="M381.389 198.449C379.055 201.099 375.913 204.938 373.668 207.954C372.86 209.05 372.052 210.147 371.244 211.244C369.807 207.771 367.473 202.104 364.061 193.422C358.764 179.621 351.761 169.751 349.695 176.788C347.451 165.181 346.104 159.423 346.104 159.423C346.104 159.423 355.98 159.514 359.033 150.923C359.033 150.923 371.423 172.858 377.798 182.454C379.055 184.282 380.312 186.202 381.569 188.03C383.993 191.411 384.083 195.341 381.389 198.449Z" fill="#DADADA"/>
<path d="M411.017 119.666C413.082 117.198 413.262 114.639 413.082 112.994C406.528 113.634 401.859 116.65 398.627 121.128C403.385 122.591 408.862 122.317 411.017 119.666Z" fill="#DADADA"/>
<path d="M413.082 112.994C413.261 114.64 413.082 117.199 411.017 119.666C408.862 122.317 403.295 122.591 398.626 121.129C394.676 126.612 392.97 134.472 392.701 143.155C395.484 152.203 407.425 155.585 415.057 155.402C419.636 138.676 419.815 113.177 419.815 113.177C417.391 112.72 415.147 112.72 413.082 112.994Z" fill="#BABABA"/>
<path d="M413.71 126.886C413.71 126.886 404.912 134.563 401.051 152.111C401.051 152.111 406.438 155.127 410.837 155.219C410.748 155.219 409.311 138.311 413.71 126.886Z" fill="#8D8D8D"/>
<path d="M333.802 117.016C333.802 117.016 335.328 106.871 341.344 103.763C348.347 100.016 353.285 103.489 354.812 106.596C355.889 108.79 354.093 109.613 351.13 109.521C348.168 109.338 346.821 110.344 345.474 111.897C344.127 113.451 345.025 119.209 345.025 119.209C345.025 119.209 339.279 122.591 333.802 117.016Z" fill="#231C1C"/>
<path d="M354.722 142.88C354.722 142.88 354.542 149.461 348.886 151.289C343.229 153.025 339.907 148.455 339.907 148.455C339.907 148.455 341.254 146.445 345.384 144.343C349.514 142.149 354.722 142.88 354.722 142.88Z" fill="#231C1C"/>
<path d="M350.143 117.564C344.576 109.978 333.084 112.537 330.57 115.096C327.158 118.478 323.746 122.408 324.824 128.531C325.542 132.644 326.799 136.665 327.787 139.59C330.301 146.627 334.251 152.111 334.251 152.111C343.409 150.832 352.926 146.902 357.505 142.149C360.558 138.95 361.187 137.305 361.187 137.305C361.187 137.305 357.146 127.069 350.143 117.564Z" fill="#DADADA"/>
<path d="M328.684 118.843C328.684 118.843 334.52 116.559 336.496 112.994C336.496 112.994 332.904 106.688 330.57 101.935C328.235 97.1834 326.53 93.8934 324.105 94.8984C321.771 95.9954 323.746 108.15 328.684 118.843Z" fill="#231C1C"/>
<path d="M325.902 127.709C325.902 127.709 321.233 120.397 319.438 117.381C317.642 114.365 314.679 108.516 316.654 107.419C318.54 106.322 330.391 117.198 330.391 117.198C330.391 117.198 332.995 124.327 325.902 127.709Z" fill="#231C1C"/>
<path d="M348.886 119.849C348.886 119.849 354.093 121.494 354.811 117.016C355.53 112.537 355.26 111.532 356.338 110.527C357.954 108.882 360.558 111.258 361.096 115.279C361.635 119.301 360.378 127.617 354.542 129.628C354.542 129.628 352.028 129.445 350.681 126.338C349.245 123.231 348.886 119.849 348.886 119.849Z" fill="#231C1C"/>
<path d="M340.805 150.74C340.805 150.74 335.867 141.784 332.724 132.279C328.953 121.037 336.046 115.005 339.817 113.817C345.653 111.897 350.322 116.741 354.362 123.23C358.403 129.719 361.096 137.214 361.096 137.214C361.096 137.214 356.338 148.09 340.805 150.74Z" fill="#C1C1C1"/>
<path d="M433.283 244.877C433.283 244.877 437.324 259.957 443.968 259.957C450.702 259.957 457.346 244.603 457.346 244.603L433.283 244.877Z" fill="#231C1C"/>
<path d="M427.538 242.592L427.987 244.237C428.257 245.334 429.244 246.065 430.322 246.065H462.465C463.632 246.065 464.709 245.334 465.158 244.237L465.697 242.775L447.471 241.861L427.538 242.592Z" fill="#8B8B8B"/>
<path d="M452.588 104.86C434.093 107.876 419.189 113.177 419.189 113.177C419.189 113.177 409.312 129.354 410.479 149.735C410.479 149.918 410.479 150.101 410.479 150.284C419.189 158.326 435.619 159.24 435.619 159.24C437.056 120.123 451.242 106.048 452.588 104.86Z" fill="#CBCACB"/>
<path d="M435.618 159.149C452.229 159.514 466.324 156.407 477.816 151.929C476.2 122.682 491.912 106.688 492.99 105.5C484.55 103.946 474.226 102.667 464.618 103.398C460.667 103.672 456.627 104.22 452.587 104.86C451.24 106.048 437.054 120.123 435.618 159.149Z" fill="#DADADA"/>
<path d="M477.728 151.929C496.672 144.617 508.614 133.558 513.552 128.349L511.577 110.161C511.577 110.161 503.675 107.602 492.991 105.591C491.824 106.688 476.201 122.682 477.728 151.929Z" fill="#EDEDED"/>
<path d="M412.274 166.369C415.416 188.761 421.701 219.195 425.382 235.007C426.011 237.84 426.729 240.399 427.537 242.593C429.333 242.593 430.051 242.593 431.128 242.593C428.704 227.604 424.484 201.099 422.419 187.116C419.905 170.482 414.159 167.009 412.274 166.369Z" fill="#A0A0A0"/>
<path d="M435.618 159.149C435.618 159.149 419.187 158.235 410.478 150.192C410.748 154.671 411.376 160.154 412.274 166.278C414.159 167.009 419.906 170.482 422.419 187.116C424.485 201.008 428.704 227.512 431.129 242.593C436.336 242.593 437.054 242.593 438.76 242.593C433.463 197.992 435.618 159.149 435.618 159.149Z" fill="#B4B4B4"/>
<path d="M513.552 128.349C508.613 133.558 496.672 144.617 477.728 151.929C477.728 152.02 477.728 152.203 477.728 152.294C477.728 152.203 477.728 152.02 477.728 151.929C466.235 156.407 452.139 159.514 435.529 159.149C435.529 159.149 433.374 197.992 438.671 242.592C443.43 242.592 447.201 242.592 448.458 242.592C448.548 237.2 449.086 230.894 450.523 223.674C452.498 214.169 455.281 201.099 459.142 189.309C464.17 173.955 471.084 160.611 480.421 159.697C496.223 158.235 503.137 173.863 503.765 175.143C513.552 162.256 519.926 154.488 519.926 154.488L513.552 128.349Z" fill="#E6E5E5"/>
<path d="M480.331 158.874C470.724 160.977 464.26 173.955 459.232 189.4C455.371 201.19 452.498 214.26 450.612 223.765C449.176 230.894 448.637 237.291 448.547 242.684C454.383 242.684 461.567 242.775 465.697 242.775C476.202 207.497 497.749 185.288 503.854 175.234C503.226 173.955 495.774 155.401 480.331 158.874Z" fill="#C6C6C6"/>
<path d="M478.266 103.672C478.266 103.672 467.043 116.01 445.494 116.01C445.494 116.01 438.312 114.182 438.581 107.602C438.581 107.602 443.16 101.844 456.538 100.108C470.365 98.1884 478.266 103.672 478.266 103.672Z" fill="#5F5F5F"/>
<path d="M436.246 178.799C427.122 178.799 419.726 169.837 419.726 158.783C419.726 147.729 427.122 138.768 436.246 138.768C445.37 138.768 452.767 147.729 452.767 158.783C452.767 169.837 445.37 178.799 436.246 178.799Z" fill="#231C1C"/>
<path d="M433.553 171.03C427.751 171.03 423.048 165.342 423.048 158.326C423.048 151.31 427.751 145.622 433.553 145.622C439.354 145.622 444.058 151.31 444.058 158.326C444.058 165.342 439.354 171.03 433.553 171.03Z" fill="#DADADA"/>
<path d="M432.028 166.735C428.16 166.735 425.024 162.929 425.024 158.235C425.024 153.541 428.16 149.735 432.028 149.735C435.895 149.735 439.031 153.541 439.031 158.235C439.031 162.929 435.895 166.735 432.028 166.735Z" fill="white"/>
<path d="M468.839 100.199C468.839 100.199 471.263 100.565 470.365 101.753C469.468 102.941 462.913 106.779 453.755 107.419C444.597 108.059 442.532 106.323 442.891 105.043C443.251 103.855 448.099 101.204 456.449 100.016C464.799 98.8284 468.839 100.199 468.839 100.199Z" fill="#231C1C"/>
<path d="M463.811 99.9254C463.811 99.9254 465.338 100.565 464.709 101.479C464.17 102.21 460.937 103.855 455.46 104.22C449.983 104.586 448.727 103.581 448.997 102.85C449.176 102.118 452.048 100.565 457.076 99.8334C462.015 99.1944 463.811 99.9254 463.811 99.9254Z" fill="#5F5F5F"/>
<path d="M496.942 127.709C496.942 127.709 495.326 145.257 501.431 155.859C505.292 162.531 510.589 166.095 510.589 166.095L517.323 158.052L513.463 143.612L496.942 127.709Z" fill="#A4A4A4"/>
<path d="M484.909 189.675C484.281 190.498 483.204 190.589 482.396 190.041L472.34 182.089C471.532 181.449 471.442 180.353 471.981 179.53C472.609 178.708 473.686 178.616 474.494 179.165L484.55 187.116C485.358 187.756 485.448 188.852 484.909 189.675Z" fill="#747474"/>
<path d="M479.433 193.97C478.804 194.793 477.727 194.884 476.919 194.336L469.646 188.578C468.838 187.938 468.749 186.842 469.287 186.019C469.916 185.197 470.993 185.105 471.801 185.653L479.074 191.411C479.882 192.051 479.972 193.148 479.433 193.97Z" fill="#747474"/>
<path d="M462.823 235.829C462.823 236.652 462.195 237.292 461.387 237.292H454.832C454.024 237.292 453.396 236.652 453.396 235.829C453.396 235.007 454.024 234.367 454.832 234.367H461.387C462.195 234.367 462.823 235.007 462.823 235.829Z" fill="#747474"/>
<path d="M487.603 183.094C486.975 183.917 485.897 184.008 485.089 183.46L477.817 177.702C477.009 177.062 476.92 175.966 477.458 175.143C478.087 174.32 479.164 174.229 479.972 174.777L487.244 180.535C488.142 181.175 488.232 182.272 487.603 183.094Z" fill="#747474"/>
<path opacity="0.46" d="M429.783 149.735L405.81 140.139L406.529 180.535L429.783 166.826C429.783 166.826 436.965 167.009 436.785 158.326C436.695 149.552 429.783 149.735 429.783 149.735Z" fill="url(#paint0_linear_109_479)"/>
<path d="M535.729 169.019C535.729 169.019 537.614 176.422 543.63 175.874C551.261 175.143 553.147 179.713 549.914 186.385C546.503 193.239 544.078 200.185 544.078 200.185" stroke="#575756" stroke-width="3" stroke-miterlimit="10"/>
<path d="M552.428 301.816C552.428 301.816 551.799 312.418 551.53 315.708C551.171 318.999 550.183 325.122 548.118 324.848C546.053 324.574 543.898 312.692 543.898 312.692C543.898 312.692 544.886 299.44 552.428 301.816Z" fill="#231C1C"/>
<path d="M533.485 272.57C533.485 272.57 535.999 266.721 541.745 267.178C547.491 267.635 548.838 273.027 548.838 273.027C548.838 273.027 546.863 274.306 542.373 274.763C537.884 275.129 533.485 272.57 533.485 272.57Z" fill="#231C1C"/>
<path d="M557.995 274.032C557.995 274.032 557.456 283.446 555.84 290.483C554.313 297.521 550.363 311.139 542.731 312.875C535.1 314.612 527.288 308.214 526.391 296.698C525.403 285.183 525.762 272.57 525.762 272.57C525.762 272.57 542.641 269.097 557.995 274.032Z" fill="#DADADA"/>
<path d="M525.672 279.242C525.672 279.242 529.982 279.699 531.418 283.537C532.855 287.376 530.701 291.58 528.636 293.043C526.571 294.505 519.836 297.155 514.09 294.322C510.498 292.586 513.551 287.742 518.669 285.365C522.619 283.629 525.672 279.242 525.672 279.242Z" fill="#231C1C"/>
<path d="M543.89 301.285C540.264 300.714 538.167 294.711 539.205 287.878C540.244 281.044 544.025 275.967 547.651 276.538C551.277 277.11 553.374 283.112 552.336 289.946C551.297 296.78 547.516 301.856 543.89 301.285Z" fill="#231C1C"/>
<path d="M543.616 296.319C541.558 295.995 540.412 292.295 541.057 288.055C541.701 283.816 543.892 280.641 545.95 280.965C548.008 281.29 549.154 284.989 548.509 289.229C547.865 293.469 545.674 296.643 543.616 296.319Z" fill="white"/>
<path d="M528.635 300.72C528.635 300.72 533.393 301.451 536.177 306.203C536.177 306.203 531.149 314.063 527.109 319.181C523.068 324.3 521.093 323.751 520.105 323.111C519.118 322.472 519.926 317.354 523.787 309.402C527.647 301.451 528.635 300.72 528.635 300.72Z" fill="#231C1C"/>
<path d="M546.412 308.488C546.412 308.488 540.576 306.569 536.985 308.306C536.985 308.306 535.997 315.617 535.009 320.827C534.022 326.128 533.393 329.783 535.728 330.423C538.062 331.063 543.719 320.187 546.412 308.488Z" fill="#231C1C"/>
<path d="M507.266 143.337L537.613 206.766L544.078 200.185L527.916 129.171L507.266 143.337Z" fill="#231C1C"/>
<path d="M507.535 109.064C507.535 109.064 498.108 113.451 497.21 124.876C495.863 141.967 503.495 150.466 503.495 150.466C503.495 150.466 524.594 149.37 532.226 136.574C538.062 120.58 526.39 101.387 507.535 109.064Z" fill="#DADBDA"/>
<path d="M532.227 136.666L532.317 143.063C532.317 143.063 528.995 151.563 509.153 154.67L503.586 150.558C503.496 150.466 524.506 149.278 532.227 136.666Z" fill="#C1C1C1"/>
<path opacity="0.63" d="M510.289 123.921C506.725 122.148 504.966 118.358 506.359 115.456C507.753 112.553 511.772 111.638 515.336 113.411C518.899 115.184 520.659 118.975 519.265 121.877C517.872 124.779 513.853 125.694 510.289 123.921Z" fill="white"/>
<path d="M552.428 243.049C554.763 226.141 557.905 202.287 558.264 195.89C558.264 195.89 560.06 189.126 553.685 188.944C550.902 188.852 546.054 189.583 540.936 192.234C539.679 200.642 537.434 221.297 542.821 235.738C546.772 246.431 549.914 246.614 552.428 243.049Z" fill="#C1C1C1"/>
<path d="M552.427 243.049C550.003 246.614 546.86 246.522 542.82 235.738C537.433 221.297 539.677 200.642 540.934 192.234C537.882 193.788 534.829 195.89 532.225 198.631C525.043 205.943 523.516 216.454 524.953 227.787C526.299 239.028 534.201 262.517 534.201 262.517C534.201 262.517 540.396 258.221 549.913 260.597C549.913 260.597 550.99 253.012 552.427 243.049Z" fill="#DADADA"/>
<path opacity="0.63" d="M527.198 221.87C526.694 215.531 527.888 210.26 529.865 210.097C531.842 209.934 533.853 214.941 534.357 221.28C534.862 227.619 533.668 232.89 531.691 233.053C529.714 233.216 527.703 228.209 527.198 221.87Z" fill="white"/>
<path d="M346.215 159.291C345.11 157.554 347.118 154.233 350.698 151.875C354.278 149.517 358.076 149.014 359.181 150.752C360.285 152.49 358.278 155.81 354.697 158.168C351.117 160.526 347.319 161.029 346.215 159.291Z" fill="#A0A0A0"/>
<path d="M348.128 156.157C347.508 155.182 348.626 153.325 350.624 152.009C352.623 150.693 354.745 150.416 355.365 151.391C355.984 152.366 354.867 154.223 352.869 155.539C350.871 156.855 348.747 157.132 348.128 156.157Z" fill="#231C1C"/>
<path d="M534.167 262.454C533.926 260.298 537.286 258.139 541.671 257.633C546.056 257.127 549.806 258.464 550.046 260.621C550.286 262.778 546.926 264.936 542.541 265.443C538.156 265.949 534.407 264.611 534.167 262.454Z" fill="#A0A0A0"/>
<path d="M537.725 263.228C537.591 262.024 539.438 260.822 541.852 260.543C544.267 260.265 546.334 261.014 546.468 262.218C546.602 263.422 544.753 264.624 542.339 264.902C539.925 265.181 537.859 264.431 537.725 263.228Z" fill="#231C1C"/>
<path d="M440.287 64.6464C438.94 74.6084 437.144 83.6574 433.194 83.1084C429.333 82.5604 424.125 74.7004 425.742 61.0824C426.909 51.1203 431.757 44.9968 435.708 45.5452C439.658 46.0936 441.723 54.6847 440.287 64.6464Z" fill="#464646"/>
<path d="M446.393 47.5559C446.393 47.5559 452.409 49.201 460.49 42.8033C463.363 40.5185 466.415 38.8734 469.109 37.5938C464.62 36.2229 458.873 35.4917 451.601 36.4057C449.356 36.6799 447.291 37.2282 445.406 37.868C444.239 39.1475 443.431 40.5185 443.251 41.9808C442.353 47.0989 446.393 47.5559 446.393 47.5559Z" fill="#B8B8B8"/>
<path d="M460.22 84.2964C458.155 89.4144 457.616 95.3554 457.526 99.7424C457.706 99.6514 457.974 99.4684 458.154 99.3774C467.671 93.3444 473.957 89.5064 480.511 82.1944C486.527 75.5224 487.784 67.7544 486.976 61.0824C480.87 64.0074 464.979 72.4154 460.22 84.2964Z" fill="#ABACAB"/>
<path d="M429.693 75.5224C430.411 82.5604 431.758 90.7854 433.823 96.2694C433.374 89.8714 433.015 84.5714 431.938 80.5494C431.399 78.8134 430.501 77.0764 429.693 75.5224Z" fill="#ABACAB"/>
<path d="M442.263 98.1884C439.659 98.0974 437.774 99.4684 436.427 101.113C437.055 101.753 437.774 102.21 438.492 102.301C443.879 103.032 447.291 103.215 449.895 102.85C448.099 100.473 445.585 98.2804 442.263 98.1884Z" fill="#ABACAB"/>
<path d="M487.064 60.991C486.346 54.045 483.473 48.1957 481.588 45.7281C481.588 45.7281 477.906 40.3358 469.108 37.5939C466.414 38.8734 463.361 40.6099 460.488 42.8034C452.408 49.2011 446.392 47.556 446.392 47.556C446.392 47.556 442.352 47.099 443.16 41.9809C443.429 40.5185 444.237 39.1476 445.315 37.8681C434.361 41.7067 428.884 51.3032 428.884 63.8244C428.884 66.2924 429.064 70.5874 429.602 75.4314C430.5 76.9854 431.308 78.8134 431.757 80.4584C432.924 84.4794 433.194 89.8714 433.643 96.1784C434.451 98.2804 435.349 100.016 436.336 101.022C437.683 99.3774 439.479 98.0064 442.172 98.0974C445.494 98.1884 448.008 100.382 449.804 102.758C452.767 102.393 454.742 101.387 457.436 99.6514C457.525 95.2644 458.064 89.4144 460.129 84.2054C464.977 72.4154 480.869 64.0074 487.064 60.991Z" fill="#DADADA"/>
<path d="M443.699 62.8195C442.172 70.4965 441.364 77.7165 441.275 87.2215" stroke="#3C3C3B" stroke-width="2" stroke-miterlimit="10" stroke-linecap="round" stroke-linejoin="round"/>
<path d="M487.783 63.9154C487.783 70.2214 489.399 73.7864 487.514 77.0764C486.346 79.0874 482.037 82.1944 480.6 82.1944C476.65 82.1944 473.507 73.9694 473.507 63.8244C473.507 53.6793 476.829 45.5452 480.78 45.5452C482.306 45.5452 485.538 48.0128 487.334 50.3891C489.579 53.4051 487.783 57.7921 487.783 63.9154Z" fill="#464646"/>
<path d="M485.382 78.0824C482.308 78.0674 479.845 71.7134 479.882 63.8894C479.918 56.0653 482.439 49.7349 485.513 49.7498C488.588 49.7647 491.051 56.1191 491.015 63.9434C490.979 71.7664 488.457 78.0974 485.382 78.0824Z" fill="#5F5F5F"/>
<path d="M492.721 64.0074C492.721 68.5764 489.937 72.2324 488.142 72.2324C486.346 72.2324 484.909 68.5764 484.999 64.0074C485.089 59.4373 486.436 55.7815 488.231 55.7815C490.027 55.7815 492.721 59.5287 492.721 64.0074Z" fill="black"/>
<path d="M464.259 53.405H435.169C435.169 53.405 431.398 53.2223 430.86 58.1576C430.321 63.0934 430.411 67.0234 431.847 69.1254C433.643 71.6844 438.491 75.0654 441.634 75.2484C446.482 75.4314 463.092 70.5874 466.055 68.0284C468.12 66.2004 470.724 53.5878 464.259 53.405Z" fill="black"/>
<path d="M450.075 63.4584C450.075 63.4584 451.332 59.5285 454.833 59.5285C458.335 59.5285 458.874 63.4584 458.874 63.4584H450.075Z" fill="#DADADA"/>
<path d="M433.463 63.4584C433.463 63.4584 434.541 59.5285 437.414 59.5285C440.287 59.5285 440.736 63.4584 440.736 63.4584H433.463Z" fill="#DADADA"/>
<defs>
<linearGradient id="paint0_linear_109_479" x1="429.318" y1="160.299" x2="413.859" y2="160.299" gradientUnits="userSpaceOnUse">
<stop stop-color="white"/>
<stop offset="1" stop-color="white" stop-opacity="0"/>
</linearGradient>
<clipPath id="clip0_109_479">
<path d="M0 10C0 4.47715 4.47715 0 10 0H592C597.523 0 602 4.47715 602 10V253H0V10Z" fill="white"/>
</clipPath>
<clipPath id="clip1_109_479">
<rect width="263" height="119" fill="white" transform="translate(24 65)"/>
</clipPath>
</defs>
</svg>
