<svg width="130" height="61" viewBox="0 0 130 61" fill="none" xmlns="http://www.w3.org/2000/svg">
<rect width="130" height="61" rx="15" fill="#ED4830"/>
<path d="M21.05 22V11.2H25.5125C25.6175 11.2 25.7525 11.205 25.9175 11.215C26.0825 11.22 26.235 11.235 26.375 11.26C27 11.355 27.515 11.5625 27.92 11.8825C28.33 12.2025 28.6325 12.6075 28.8275 13.0975C29.0275 13.5825 29.1275 14.1225 29.1275 14.7175C29.1275 15.3075 29.0275 15.8475 28.8275 16.3375C28.6275 16.8225 28.3225 17.225 27.9125 17.545C27.5075 17.865 26.995 18.0725 26.375 18.1675C26.235 18.1875 26.08 18.2025 25.91 18.2125C25.745 18.2225 25.6125 18.2275 25.5125 18.2275H22.8575V22H21.05ZM22.8575 16.54H25.4375C25.5375 16.54 25.65 16.535 25.775 16.525C25.9 16.515 26.015 16.495 26.12 16.465C26.42 16.39 26.655 16.2575 26.825 16.0675C27 15.8775 27.1225 15.6625 27.1925 15.4225C27.2675 15.1825 27.305 14.9475 27.305 14.7175C27.305 14.4875 27.2675 14.2525 27.1925 14.0125C27.1225 13.7675 27 13.55 26.825 13.36C26.655 13.17 26.42 13.0375 26.12 12.9625C26.015 12.9325 25.9 12.915 25.775 12.91C25.65 12.9 25.5375 12.895 25.4375 12.895H22.8575V16.54ZM29.133 22L32.538 11.2H35.1855L38.5905 22H36.7305L33.6405 12.31H34.0455L30.993 22H29.133ZM31.0305 19.66V17.9725H36.7005V19.66H31.0305ZM44.221 22.225C43.141 22.225 42.216 21.99 41.446 21.52C40.676 21.045 40.0835 20.385 39.6685 19.54C39.2585 18.695 39.0535 17.715 39.0535 16.6C39.0535 15.485 39.2585 14.505 39.6685 13.66C40.0835 12.815 40.676 12.1575 41.446 11.6875C42.216 11.2125 43.141 10.975 44.221 10.975C45.466 10.975 46.5035 11.2875 47.3335 11.9125C48.1635 12.5325 48.746 13.37 49.081 14.425L47.2585 14.9275C47.0485 14.2225 46.691 13.6725 46.186 13.2775C45.681 12.8775 45.026 12.6775 44.221 12.6775C43.496 12.6775 42.891 12.84 42.406 13.165C41.926 13.49 41.5635 13.9475 41.3185 14.5375C41.0785 15.1225 40.956 15.81 40.951 16.6C40.951 17.39 41.071 18.08 41.311 18.67C41.556 19.255 41.921 19.71 42.406 20.035C42.891 20.36 43.496 20.5225 44.221 20.5225C45.026 20.5225 45.681 20.3225 46.186 19.9225C46.691 19.5225 47.0485 18.9725 47.2585 18.2725L49.081 18.775C48.746 19.83 48.1635 20.67 47.3335 21.295C46.5035 21.915 45.466 22.225 44.221 22.225ZM55.2952 22.225C54.2152 22.225 53.2902 21.99 52.5202 21.52C51.7502 21.045 51.1577 20.385 50.7427 19.54C50.3327 18.695 50.1277 17.715 50.1277 16.6C50.1277 15.485 50.3327 14.505 50.7427 13.66C51.1577 12.815 51.7502 12.1575 52.5202 11.6875C53.2902 11.2125 54.2152 10.975 55.2952 10.975C56.5402 10.975 57.5777 11.2875 58.4077 11.9125C59.2377 12.5325 59.8202 13.37 60.1552 14.425L58.3327 14.9275C58.1227 14.2225 57.7652 13.6725 57.2602 13.2775C56.7552 12.8775 56.1002 12.6775 55.2952 12.6775C54.5702 12.6775 53.9652 12.84 53.4802 13.165C53.0002 13.49 52.6377 13.9475 52.3927 14.5375C52.1527 15.1225 52.0302 15.81 52.0252 16.6C52.0252 17.39 52.1452 18.08 52.3852 18.67C52.6302 19.255 52.9952 19.71 53.4802 20.035C53.9652 20.36 54.5702 20.5225 55.2952 20.5225C56.1002 20.5225 56.7552 20.3225 57.2602 19.9225C57.7652 19.5225 58.1227 18.9725 58.3327 18.2725L60.1552 18.775C59.8202 19.83 59.2377 20.67 58.4077 21.295C57.5777 21.915 56.5402 22.225 55.2952 22.225ZM61.802 22V11.2H66.2645C66.3695 11.2 66.5045 11.205 66.6695 11.215C66.8345 11.22 66.987 11.235 67.127 11.26C67.752 11.355 68.267 11.5625 68.672 11.8825C69.082 12.2025 69.3845 12.6075 69.5795 13.0975C69.7795 13.5825 69.8795 14.1225 69.8795 14.7175C69.8795 15.3075 69.7795 15.8475 69.5795 16.3375C69.3795 16.8225 69.0745 17.225 68.6645 17.545C68.2595 17.865 67.747 18.0725 67.127 18.1675C66.987 18.1875 66.832 18.2025 66.662 18.2125C66.497 18.2225 66.3645 18.2275 66.2645 18.2275H63.6095V22H61.802ZM63.6095 16.54H66.1895C66.2895 16.54 66.402 16.535 66.527 16.525C66.652 16.515 66.767 16.495 66.872 16.465C67.172 16.39 67.407 16.2575 67.577 16.0675C67.752 15.8775 67.8745 15.6625 67.9445 15.4225C68.0195 15.1825 68.057 14.9475 68.057 14.7175C68.057 14.4875 68.0195 14.2525 67.9445 14.0125C67.8745 13.7675 67.752 13.55 67.577 13.36C67.407 13.17 67.172 13.0375 66.872 12.9625C66.767 12.9325 66.652 12.915 66.527 12.91C66.402 12.9 66.2895 12.895 66.1895 12.895H63.6095V16.54ZM75.9495 22.225C74.8695 22.225 73.9445 21.99 73.1745 21.52C72.4045 21.045 71.812 20.385 71.397 19.54C70.987 18.695 70.782 17.715 70.782 16.6C70.782 15.485 70.987 14.505 71.397 13.66C71.812 12.815 72.4045 12.1575 73.1745 11.6875C73.9445 11.2125 74.8695 10.975 75.9495 10.975C77.0295 10.975 77.9545 11.2125 78.7245 11.6875C79.4995 12.1575 80.092 12.815 80.502 13.66C80.917 14.505 81.1245 15.485 81.1245 16.6C81.1245 17.715 80.917 18.695 80.502 19.54C80.092 20.385 79.4995 21.045 78.7245 21.52C77.9545 21.99 77.0295 22.225 75.9495 22.225ZM75.9495 20.5225C76.6745 20.5275 77.277 20.3675 77.757 20.0425C78.242 19.7175 78.6045 19.26 78.8445 18.67C79.0895 18.08 79.212 17.39 79.212 16.6C79.212 15.81 79.0895 15.125 78.8445 14.545C78.6045 13.96 78.242 13.505 77.757 13.18C77.277 12.855 76.6745 12.6875 75.9495 12.6775C75.2245 12.6725 74.622 12.8325 74.142 13.1575C73.662 13.4825 73.2995 13.94 73.0545 14.53C72.8145 15.12 72.6945 15.81 72.6945 16.6C72.6945 17.39 72.8145 18.0775 73.0545 18.6625C73.2945 19.2425 73.6545 19.695 74.1345 20.02C74.6195 20.345 75.2245 20.5125 75.9495 20.5225ZM88.8424 22V17.2L89.1349 17.665C88.8399 17.91 88.4399 18.1025 87.9349 18.2425C87.4299 18.3775 86.8924 18.445 86.3224 18.445C85.4124 18.445 84.6874 18.2675 84.1474 17.9125C83.6074 17.5575 83.2174 17.0675 82.9774 16.4425C82.7374 15.8175 82.6174 15.095 82.6174 14.275V11.2H84.4474V13.72C84.4474 14.09 84.4674 14.455 84.5074 14.815C84.5524 15.17 84.6474 15.4925 84.7924 15.7825C84.9424 16.0725 85.1699 16.305 85.4749 16.48C85.7799 16.65 86.1924 16.735 86.7124 16.735C87.2924 16.735 87.7874 16.6375 88.1974 16.4425C88.6074 16.2475 88.8974 16.04 89.0674 15.82L88.8424 16.7275V11.2H90.6574V22H88.8424ZM92.7541 22V11.2H94.5616V16.21L98.8741 11.2H101.094L96.4516 16.495L101.409 22H99.1141L94.5616 16.96V22H92.7541ZM101.716 22L105.121 11.2H107.769L111.174 22H109.314L106.224 12.31H106.629L103.576 22H101.716ZM103.614 19.66V17.9725H109.284V19.66H103.614ZM31.186 52.51C29.452 52.51 27.922 52.1417 26.596 51.405C25.27 50.657 24.233 49.62 23.485 48.294C22.7483 46.968 22.38 45.438 22.38 43.704V35.816C22.38 34.082 22.7483 32.552 23.485 31.226C24.233 29.9 25.27 28.8687 26.596 28.132C27.922 27.384 29.452 27.01 31.186 27.01C32.92 27.01 34.4443 27.384 35.759 28.132C37.085 28.8687 38.122 29.9 38.87 31.226C39.618 32.552 39.992 34.082 39.992 35.816V43.704C39.992 45.438 39.618 46.968 38.87 48.294C38.122 49.62 37.085 50.657 35.759 51.405C34.4443 52.1417 32.92 52.51 31.186 52.51ZM31.186 48.617C32.0473 48.617 32.8293 48.413 33.532 48.005C34.2347 47.5857 34.79 47.0303 35.198 46.339C35.606 45.6363 35.81 44.8543 35.81 43.993V35.51C35.81 34.6373 35.606 33.8553 35.198 33.164C34.79 32.4613 34.2347 31.906 33.532 31.498C32.8293 31.0787 32.0473 30.869 31.186 30.869C30.3247 30.869 29.5427 31.0787 28.84 31.498C28.1373 31.906 27.582 32.4613 27.174 33.164C26.766 33.8553 26.562 34.6373 26.562 35.51V43.993C26.562 44.8543 26.766 45.6363 27.174 46.339C27.582 47.0303 28.1373 47.5857 28.84 48.005C29.5427 48.413 30.3247 48.617 31.186 48.617ZM60.3715 52.51C58.6375 52.51 57.1075 52.1417 55.7815 51.405C54.4555 50.657 53.4185 49.62 52.6705 48.294C51.9339 46.968 51.5655 45.438 51.5655 43.704V35.816C51.5655 34.082 51.9339 32.552 52.6705 31.226C53.4185 29.9 54.4555 28.8687 55.7815 28.132C57.1075 27.384 58.6375 27.01 60.3715 27.01C62.1055 27.01 63.6299 27.384 64.9445 28.132C66.2705 28.8687 67.3075 29.9 68.0555 31.226C68.8035 32.552 69.1775 34.082 69.1775 35.816V43.704C69.1775 45.438 68.8035 46.968 68.0555 48.294C67.3075 49.62 66.2705 50.657 64.9445 51.405C63.6299 52.1417 62.1055 52.51 60.3715 52.51ZM60.3715 48.617C61.2329 48.617 62.0149 48.413 62.7175 48.005C63.4202 47.5857 63.9755 47.0303 64.3835 46.339C64.7915 45.6363 64.9955 44.8543 64.9955 43.993V35.51C64.9955 34.6373 64.7915 33.8553 64.3835 33.164C63.9755 32.4613 63.4202 31.906 62.7175 31.498C62.0149 31.0787 61.2329 30.869 60.3715 30.869C59.5102 30.869 58.7282 31.0787 58.0255 31.498C57.3229 31.906 56.7675 32.4613 56.3595 33.164C55.9515 33.8553 55.7475 34.6373 55.7475 35.51V43.993C55.7475 44.8543 55.9515 45.6363 56.3595 46.339C56.7675 47.0303 57.3229 47.5857 58.0255 48.005C58.7282 48.413 59.5102 48.617 60.3715 48.617ZM85.0011 52V31.991L80.4111 34.796V30.274L85.0011 27.52H89.1831V52H85.0011ZM94.9793 51.966V48.396L105.451 39.063C106.267 38.3377 106.834 37.652 107.151 37.006C107.469 36.36 107.627 35.7367 107.627 35.136C107.627 34.32 107.452 33.5947 107.1 32.96C106.749 32.314 106.262 31.804 105.638 31.43C105.026 31.056 104.318 30.869 103.513 30.869C102.663 30.869 101.91 31.0673 101.252 31.464C100.606 31.8493 100.102 32.365 99.7393 33.011C99.3766 33.657 99.2066 34.354 99.2293 35.102H95.0133C95.0133 33.47 95.376 32.0477 96.1013 30.835C96.838 29.6223 97.8466 28.6817 99.1273 28.013C100.419 27.3443 101.91 27.01 103.598 27.01C105.162 27.01 106.568 27.3613 107.814 28.064C109.061 28.7553 110.041 29.7187 110.755 30.954C111.469 32.178 111.826 33.589 111.826 35.187C111.826 36.3543 111.668 37.3347 111.35 38.128C111.033 38.9213 110.557 39.6523 109.922 40.321C109.299 40.9897 108.523 41.732 107.593 42.548L100.164 49.127L99.7903 48.107H111.826V51.966H94.9793Z" fill="white"/>
<path d="M49 39C49 40.6569 47.6569 42 46 42C44.3431 42 43 40.6569 43 39C43 37.3431 44.3431 36 46 36C47.6569 36 49 37.3431 49 39Z" fill="white"/>
<path d="M78 39C78 40.6569 76.6569 42 75 42C73.3431 42 72 40.6569 72 39C72 37.3431 73.3431 36 75 36C76.6569 36 78 37.3431 78 39Z" fill="white"/>
</svg>
