<svg width="147" height="30" viewBox="0 0 147 30" fill="none" xmlns="http://www.w3.org/2000/svg">
<path d="M1.50552 23.4637V7.77655H4.43052V15.0101L10.3235 7.77655H13.8938L7.42005 15.5112L14.3024 23.4637H10.6031L4.43052 16.3173V23.4637H1.50552ZM14.7334 23.4637L19.465 7.77655H23.831L28.5626 23.4637H25.5516L21.3361 9.62851H21.8953L17.7444 23.4637H14.7334ZM17.5723 20.1955V17.4285H25.7451V20.1955H17.5723ZM30.0598 23.4637V23.0933L37.4154 10.5436H30.7051V7.77655H42.5341V8.14694L35.2216 20.6749H42.319V23.4637H30.0598Z" fill="#EE252C"/>
<path d="M45.1084 23.4637V7.77652H49.9583C50.1015 7.77652 50.3669 7.78016 50.754 7.78742C51.1483 7.79467 51.5247 7.82374 51.8832 7.87457C53.0947 8.02708 54.1127 8.46647 54.9372 9.19272C55.7687 9.91898 56.3961 10.8413 56.8191 11.9598C57.242 13.0709 57.4536 14.291 57.4536 15.6201C57.4536 16.9564 57.242 18.1838 56.8191 19.3022C56.3961 20.4134 55.7687 21.3322 54.9372 22.0584C54.1127 22.7774 53.0947 23.2131 51.8832 23.3656C51.5247 23.4164 51.1483 23.4456 50.754 23.4528C50.3669 23.46 50.1015 23.4637 49.9583 23.4637H45.1084ZM47.4097 21.2958H49.9583C50.202 21.2958 50.4923 21.2886 50.8293 21.274C51.1662 21.2594 51.4638 21.2304 51.7219 21.1869C52.5104 21.0343 53.1485 20.6894 53.636 20.1519C54.1307 19.6072 54.4927 18.939 54.7222 18.1475C54.9515 17.3559 55.0663 16.5134 55.0663 15.6201C55.0663 14.6978 54.948 13.8444 54.7114 13.06C54.4748 12.2684 54.1092 11.6075 53.6145 11.0774C53.127 10.5399 52.4961 10.1986 51.7219 10.0533C51.4638 10.0025 51.1627 9.97345 50.8186 9.96619C50.4816 9.95166 50.1949 9.9444 49.9583 9.9444H47.4097V21.2958ZM59.9577 23.4637V7.77652H69.8511V9.92261H62.2052V14.3237H68.5607V16.4698H62.2052V21.3176H69.8511V23.4637H59.9577ZM76.0684 23.4637L71.0356 7.77652H73.3692L77.6599 21.1651L82.0044 7.77652H84.3379L79.3052 23.4637H76.0684ZM120.405 23.4637V7.77652H126.664C126.814 7.77652 127.001 7.78378 127.223 7.79831C127.445 7.80557 127.657 7.82736 127.857 7.86367C128.718 8.00166 129.435 8.29943 130.008 8.75697C130.589 9.21451 131.022 9.79189 131.309 10.4891C131.596 11.1863 131.739 11.9561 131.739 12.7986C131.739 13.6483 131.596 14.4218 131.309 15.119C131.022 15.8162 130.589 16.3936 130.008 16.8511C129.435 17.3086 128.718 17.6065 127.857 17.7444C127.657 17.7734 127.441 17.7952 127.212 17.8098C126.99 17.8243 126.807 17.8316 126.664 17.8316H122.653V23.4637H120.405ZM122.653 15.6746H126.578C126.721 15.6746 126.879 15.6673 127.051 15.6528C127.23 15.6382 127.398 15.6128 127.556 15.5765C128.015 15.4676 128.384 15.2679 128.664 14.9774C128.944 14.6796 129.144 14.3383 129.266 13.9533C129.388 13.5684 129.449 13.1835 129.449 12.7986C129.449 12.4137 129.388 12.0324 129.266 11.6547C129.144 11.2698 128.944 10.9321 128.664 10.6416C128.384 10.3438 128.015 10.1405 127.556 10.0316C127.398 9.98798 127.23 9.95893 127.051 9.9444C126.879 9.92987 126.721 9.92261 126.578 9.92261H122.653V15.6746ZM139.503 23.7905C138.391 23.7905 137.388 23.5981 136.492 23.2131C135.603 22.8209 134.868 22.2653 134.287 21.5464C133.714 20.8202 133.341 19.9595 133.169 18.9645L135.513 18.605C135.75 19.5637 136.244 20.3117 136.997 20.8491C137.75 21.3793 138.628 21.6444 139.632 21.6444C140.255 21.6444 140.829 21.5464 141.352 21.3503C141.876 21.147 142.295 20.86 142.61 20.4897C142.933 20.1121 143.094 19.6617 143.094 19.1388C143.094 18.8556 143.044 18.605 142.944 18.3871C142.851 18.1693 142.718 17.9804 142.546 17.8207C142.381 17.6536 142.177 17.5119 141.933 17.3958C141.696 17.2723 141.435 17.167 141.148 17.0799L137.18 15.8924C136.793 15.7762 136.398 15.6274 135.997 15.4458C135.595 15.257 135.226 15.0137 134.889 14.7159C134.559 14.4109 134.291 14.0369 134.083 13.5938C133.875 13.1436 133.771 12.5989 133.771 11.9598C133.771 10.9938 134.015 10.1768 134.502 9.50865C134.997 8.83323 135.664 8.32485 136.502 7.98351C137.341 7.6349 138.28 7.4606 139.32 7.4606C140.366 7.47513 141.302 7.66395 142.127 8.02708C142.958 8.39022 143.646 8.91312 144.191 9.5958C144.743 10.2712 145.123 11.0919 145.331 12.0578L142.922 12.4718C142.815 11.8835 142.585 11.3788 142.234 10.9575C141.883 10.529 141.453 10.2022 140.944 9.97708C140.435 9.74467 139.883 9.62484 139.288 9.61758C138.714 9.60305 138.187 9.69021 137.707 9.87904C137.234 10.0679 136.854 10.3329 136.567 10.6743C136.287 11.0156 136.148 11.4078 136.148 11.8508C136.148 12.2866 136.273 12.6388 136.524 12.9075C136.775 13.1762 137.083 13.3905 137.449 13.5503C137.821 13.7028 138.191 13.8299 138.556 13.9316L141.417 14.7486C141.775 14.8503 142.18 14.9883 142.632 15.1626C143.091 15.3296 143.532 15.5656 143.955 15.8707C144.385 16.1757 144.74 16.5824 145.019 17.0908C145.299 17.5919 145.439 18.2237 145.439 18.9863C145.439 19.7779 145.281 20.4751 144.966 21.0779C144.65 21.6734 144.216 22.1745 143.664 22.5813C143.119 22.9807 142.489 23.2822 141.772 23.4855C141.055 23.6888 140.298 23.7905 139.503 23.7905Z" fill="#1E1E1E"/>
<path fill-rule="evenodd" clip-rule="evenodd" d="M101.413 27.1522L101.405 23.6504C97.9078 23.5649 94.926 21.6275 93.5573 18.5051C93.0769 17.4089 92.7933 16.267 92.792 14.917C92.7874 10.1112 96.4568 6.32544 101.418 6.1748L101.415 2.68026H100.495C100.321 2.34702 99.1277 1.02104 98.8445 0.681752L98.3096 0C97.7784 0.0119814 96.1245 0.630479 95.5812 0.848635C94.6985 1.20308 93.9787 1.67511 93.1905 2.09759C93.2157 2.40268 93.2789 2.90264 93.3019 3.20849C93.332 3.61079 93.326 4.01222 93.379 4.41226L93.482 5.53547C93.461 5.82915 93.3125 5.78858 92.8886 6.21987C92.2091 6.91098 92.5612 6.96461 91.1285 6.80847C90.4071 6.72987 89.5565 6.64237 88.7618 6.64237C88.1269 7.60275 87.4026 9.15548 87.0563 10.3334C86.9493 10.6973 86.6994 11.3906 86.6912 11.7698C86.9992 11.9788 87.3104 12.2814 87.598 12.5409L88.0312 12.9177C89.6984 14.3465 89.3369 13.6883 89.3369 15.8485L88.6613 16.3875C88.4612 16.576 88.2175 16.7965 88.0142 16.9557L87.0508 17.786C86.9066 17.9264 86.847 17.9569 86.6912 18.0625C86.7099 18.9107 87.745 21.3025 88.1098 22.0441L88.7618 23.2483L91.5806 23.0157C91.8559 23.0085 91.9219 22.9352 92.1552 22.9532C92.4833 22.9787 92.639 23.3526 92.8297 23.5557C92.9723 23.7075 93.396 24.0121 93.4501 24.151C93.5049 24.2916 93.4347 25.111 93.4172 25.3425C93.3593 26.107 93.2481 26.9088 93.2481 27.7347C94.3718 28.497 96.1367 29.2906 97.5163 29.6454C98.4823 29.8939 98.0606 30.1031 99.247 28.6845L100.257 27.4931C100.615 27.0332 100.668 27.1522 101.413 27.1522Z" fill="#862226"/>
<path fill-rule="evenodd" clip-rule="evenodd" d="M101.415 2.68026L101.418 6.1748C109.624 6.41128 112.632 15.9533 107.52 21.1002C106.223 22.4063 104.103 23.5892 101.405 23.6504L101.413 27.1522C102.116 27.1522 102.202 27.0315 102.549 27.4604C102.686 27.6303 104.474 29.8049 104.579 29.8324H104.639C105.045 29.7866 107.006 29.0873 107.244 28.9785C108.067 28.6042 108.884 28.2085 109.583 27.7347C109.583 27.0469 109.318 24.4512 109.356 24.2437C109.39 24.059 109.501 23.9819 109.631 23.8802C110.645 23.0874 110.029 22.7809 111.744 23.0398C112.444 23.1454 113.505 23.1152 114.069 23.2483C114.116 23.069 114.274 22.8553 114.375 22.684C114.507 22.4599 114.591 22.3098 114.702 22.083C114.905 21.6687 115.088 21.3 115.279 20.8611C115.46 20.4409 116.129 18.5398 116.14 18.0625L115.467 17.5207C115.246 17.3316 115.043 17.1248 114.825 16.947C114.593 16.7573 113.68 15.8987 113.494 15.8485C113.494 13.9649 113.187 14.2263 114.332 13.3182L114.981 12.7518C115.154 12.611 116.114 11.8135 116.14 11.7116V11.6193C116.085 11.1406 115.426 9.32274 115.302 9.00593C115.011 8.26173 114.475 7.25673 114.069 6.64237C113.388 6.64237 110.828 6.91034 110.622 6.87263C110.401 6.83202 110.4 6.73126 110.281 6.5759C109.153 5.095 109.233 7.06104 109.64 2.09759C108.507 1.49028 107.341 0.758179 105.993 0.37409C105.608 0.264692 104.91 0.00876585 104.521 0L102.336 2.68026H101.415Z" fill="#EE252C"/>
<path fill-rule="evenodd" clip-rule="evenodd" d="M101.425 6.679C105.907 6.679 109.542 10.3613 109.542 14.902C109.542 19.4425 105.907 23.1248 101.425 23.1248C96.9431 23.1248 93.3082 19.4425 93.3082 14.902C93.3082 10.3613 96.9431 6.679 101.425 6.679ZM101.425 6.34506C106.089 6.34506 109.872 10.1769 109.872 14.902C109.872 19.627 106.089 23.4588 101.425 23.4588C96.7611 23.4588 92.9786 19.627 92.9786 14.902C92.9786 10.1769 96.7611 6.34506 101.425 6.34506Z" fill="#1E1E1E"/>
<path fill-rule="evenodd" clip-rule="evenodd" d="M101.425 7.98986C105.193 7.98986 108.249 11.0852 108.249 14.902C108.249 18.7188 105.193 21.814 101.425 21.814C97.6576 21.814 94.6021 18.7188 94.6021 14.902C94.6021 11.0852 97.6576 7.98986 101.425 7.98986ZM101.425 6.96396C105.752 6.96396 109.261 10.5187 109.261 14.902C109.261 19.2853 105.752 22.8401 101.425 22.8401C97.0984 22.8401 93.5894 19.2853 93.5894 14.902C93.5894 10.5187 97.0984 6.96396 101.425 6.96396Z" fill="#1E1E1E"/>
<path fill-rule="evenodd" clip-rule="evenodd" d="M105.066 15.7238L104.414 15.0628L103.622 15.8653L104.274 16.5263L104.695 16.6326L106.293 18.2519L106.382 18.5408L106.579 18.7409C106.774 18.4713 106.946 18.1899 107.095 17.8996L106.973 17.7766L106.77 17.7695L105.171 16.1503L105.066 15.7238ZM104.708 19.8578L103.11 18.2386L103.005 17.8119L102.352 17.1511L101.56 17.9536L102.213 18.6146L102.634 18.7208L104.232 20.34L104.239 20.5465L104.361 20.6697C104.647 20.519 104.925 20.3449 105.191 20.1474L104.993 19.9475L104.708 19.8578ZM105.351 19.585L105.565 19.8018L106.238 19.12L106.024 18.9033L105.739 18.8137L104.14 17.1945L104.036 16.768L103.383 16.107L102.591 16.9094L103.243 17.5704L103.664 17.6767L105.263 19.296L105.351 19.585ZM100.618 11.2178L101.271 11.8788L100.479 12.6813L99.826 12.0203L99.7212 11.5938L98.1228 9.9745L97.8374 9.88487L97.6401 9.68486C97.9061 9.48738 98.1839 9.31343 98.4704 9.16281L98.5919 9.28584L98.5988 9.49224L100.197 11.1115L100.618 11.2178ZM96.5374 11.5805L98.1357 13.1997L98.5569 13.3061L99.2093 13.967L98.4172 14.7695L97.7646 14.1086L97.6598 13.682L96.0614 12.0628L95.8576 12.0558L95.7362 11.9327C95.8847 11.6423 96.0566 11.361 96.2515 11.0915L96.4489 11.2915L96.5374 11.5805ZM96.8067 10.929L96.5928 10.7123L97.2657 10.0306L97.4796 10.2473L97.5681 10.5364L99.1664 12.1556L99.5875 12.262L100.24 12.9229L99.4478 13.7254L98.7954 13.0645L98.6905 12.6379L97.0921 11.0186L96.8067 10.929ZM97.7646 15.7238L98.4172 15.0628L99.2093 15.8653L98.5569 16.5263L98.1357 16.6326L96.5374 18.2519L96.4489 18.5408L96.2515 18.7409C96.0566 18.4713 95.8847 18.1899 95.7362 17.8996L95.8576 17.7766L96.0614 17.7695L97.6598 16.1503L97.7646 15.7238ZM98.1227 19.8578L99.7212 18.2386L99.826 17.8119L100.479 17.1511L101.271 17.9536L100.618 18.6146L100.197 18.7208L98.5988 20.34L98.5919 20.5465L98.4704 20.6697C98.1837 20.519 97.9059 20.3449 97.6399 20.1474L97.8374 19.9475L98.1227 19.8578ZM97.4796 19.585L97.2657 19.8018L96.5928 19.12L96.8067 18.9033L97.092 18.8137L98.6905 17.1945L98.7954 16.768L99.4478 16.107L100.24 16.9094L99.5875 17.5704L99.1664 17.6767L97.5681 19.296L97.4796 19.585ZM102.213 11.2178L101.56 11.8788L102.353 12.6813L103.005 12.0203L103.11 11.5938L104.708 9.9745L104.994 9.88487L105.191 9.68486C104.925 9.48738 104.647 9.31343 104.36 9.16281L104.239 9.28584L104.232 9.49224L102.634 11.1115L102.213 11.2178ZM106.293 11.5805L104.695 13.1997L104.274 13.3061L103.622 13.967L104.414 14.7695L105.066 14.1086L105.171 13.682L106.77 12.0628L106.973 12.0558L107.095 11.9327C106.946 11.6423 106.774 11.361 106.579 11.0915L106.382 11.2915L106.293 11.5805ZM106.024 10.929L106.238 10.7123L105.565 10.0306L105.351 10.2473L105.263 10.5364L103.664 12.1556L103.243 12.262L102.591 12.9229L103.383 13.7254L104.036 13.0645L104.14 12.6379L105.739 11.0186L106.024 10.929Z" fill="#1E1E1E"/>
<path fill-rule="evenodd" clip-rule="evenodd" d="M102.678 14.9161L103.467 14.1175L104.255 14.9162L103.467 15.7148L102.678 14.9161ZM101.653 15.9552L102.441 15.1566L103.23 15.9552L102.441 16.7539L101.653 15.9552ZM100.627 16.9942L101.415 16.1956L102.204 16.9942L101.415 17.7929L100.627 16.9942ZM99.6014 15.9552L100.39 15.1566L101.178 15.9553L100.39 16.7539L99.6014 15.9552ZM100.627 14.9161L101.415 14.1175L102.204 14.9162L101.416 15.7148L100.627 14.9161ZM101.653 13.8771L102.441 13.0785L103.23 13.8772L102.441 14.6758L101.653 13.8771ZM100.627 12.8381L101.415 12.0395L102.204 12.8382L101.416 13.6368L100.627 12.8381ZM99.6015 13.8772L100.39 13.0785L101.178 13.8772L100.39 14.6759L99.6015 13.8772ZM98.5758 14.9162L99.3641 14.1176L100.153 14.9163L99.3643 15.7149L98.5758 14.9162Z" fill="#1E1E1E"/>
</svg>
