<svg width="78" height="30" viewBox="0 0 78 30" fill="none" xmlns="http://www.w3.org/2000/svg">
<path d="M30 1.5L48 0V28.5L30 30V1.5Z" fill="#5C76FF"/>
<path d="M34.6 23.2501V9.29003H43.5199V11.75H37.6V14.9501H43.32V17.4101H37.6V20.7901H43.5199V23.2501H34.6ZM36.8599 8.03003C36.2599 8.03003 35.8399 7.91003 35.5999 7.67003C35.3733 7.41671 35.26 7.11671 35.26 6.77004V6.25005C35.26 5.90338 35.3733 5.61004 35.5999 5.37004C35.8399 5.13004 36.2599 5.01004 36.8599 5.01004C37.4599 5.01004 37.8799 5.13004 38.1199 5.37004C38.3599 5.61004 38.4799 5.90338 38.4799 6.25005V6.77004C38.4799 7.11671 38.3599 7.41671 38.1199 7.67003C37.8799 7.91003 37.4599 8.03003 36.8599 8.03003ZM41.26 8.03003C40.66 8.03003 40.24 7.91003 40 7.67003C39.76 7.41671 39.64 7.11671 39.64 6.77004V6.25005C39.64 5.90338 39.76 5.61004 40 5.37004C40.24 5.13004 40.66 5.01004 41.26 5.01004C41.86 5.01004 42.2733 5.13004 42.4999 5.37004C42.7399 5.61004 42.8599 5.90338 42.8599 6.25005V6.77004C42.8599 7.11671 42.7399 7.41671 42.4999 7.67003C42.2733 7.91003 41.86 8.03003 41.26 8.03003Z" fill="white"/>
<path d="M6.32004 23.4901C4.45337 23.4901 3.0667 22.8635 2.16004 21.6101C1.2667 20.3435 0.820035 18.5634 0.820035 16.2701C0.820035 13.9768 1.2667 12.2034 2.16004 10.9501C3.0667 9.68341 4.45337 9.05011 6.32004 9.05011C7.04004 9.05011 7.6734 9.15008 8.22008 9.35011C8.78003 9.53678 9.26003 9.80341 9.66008 10.1501C10.0601 10.4968 10.3867 10.9168 10.64 11.4101C10.9067 11.9034 11.1134 12.4568 11.2601 13.0701L8.46007 13.7501C8.38005 13.4168 8.28668 13.1101 8.18003 12.8301C8.07338 12.5501 7.93335 12.3101 7.76002 12.1101C7.60005 11.9101 7.39337 11.7568 7.14004 11.6501C6.90004 11.5301 6.6067 11.4701 6.26004 11.4701C5.4467 11.4701 4.86671 11.7901 4.52004 12.4301C4.1867 13.0568 4.02004 13.9301 4.02004 15.0501V17.4901C4.02004 18.6101 4.1867 19.4901 4.52004 20.1301C4.86671 20.7568 5.4467 21.0701 6.26004 21.0701C6.95337 21.0701 7.45337 20.8568 7.76002 20.4301C8.08005 20.0034 8.31337 19.4567 8.46007 18.7901L11.2601 19.4701C11.1134 20.0834 10.9067 20.6368 10.64 21.1301C10.3867 21.6234 10.0601 22.0501 9.66008 22.4101C9.26003 22.7567 8.78003 23.0234 8.22008 23.2101C7.6734 23.3968 7.04004 23.4901 6.32004 23.4901Z" fill="#161518"/>
<path d="M22.3722 11.7501H20.1722V14.1501C20.1722 15.3767 20.1256 16.4435 20.0322 17.3501C19.9389 18.2435 19.8056 19.0101 19.6322 19.6501C19.4589 20.2901 19.2589 20.8168 19.0322 21.2301C18.8056 21.6434 18.5656 21.9767 18.3122 22.2301C17.8989 22.6434 17.4522 22.9367 16.9722 23.1101C16.5056 23.2835 15.9189 23.3701 15.2123 23.3701H14.6322V20.7901H16.0122C16.2256 20.5634 16.4123 20.2701 16.5722 19.9101C16.7456 19.5368 16.8923 19.0701 17.0123 18.5101C17.1323 17.95 17.2255 17.2834 17.2922 16.51C17.3589 15.7234 17.3922 14.7968 17.3922 13.7301V9.2901H25.3922V23.2501H22.3722V11.7501Z" fill="#161518"/>
<path d="M52.52 23.2501V9.29004H57.9199C58.6 9.29004 59.2066 9.39669 59.74 9.61006C60.2733 9.81009 60.7199 10.1034 61.0799 10.49C61.4533 10.8767 61.7333 11.3434 61.9199 11.8901C62.1066 12.4367 62.2 13.0501 62.2 13.73C62.2 14.4101 62.1066 15.0234 61.9199 15.5701C61.7333 16.1167 61.4533 16.5834 61.0799 16.97C60.7199 17.3567 60.2733 17.6567 59.74 17.87C59.2066 18.0701 58.6 18.17 57.9199 18.17H55.54V23.2501H52.52ZM55.54 15.7501H57.16C57.8666 15.7501 58.3533 15.6167 58.6199 15.35C58.9 15.0834 59.0399 14.6434 59.0399 14.03V13.43C59.0399 12.8167 58.9 12.3767 58.6199 12.11C58.3533 11.8434 57.8666 11.7101 57.16 11.7101H55.54V15.7501Z" fill="#161518"/>
<path d="M74.0122 17.03L74.1722 13.13H73.9921L71.3921 20.3101L68.7922 13.13H68.6122L68.7722 17.03V23.2501H66.1721V9.29004H69.7121L71.4322 13.9901H71.5922L73.3121 9.29004H76.6125V23.2501H74.0122V17.03Z" fill="#161518"/>
</svg>
